Amatic.ufo
<glyph name="quotedbl" format="1">
  <advance width="636"/>
  <unicode hex="0022"/>
  <outline>
    <contour>
      <point x="207" y="1262" type="curve"/>
      <point x="211" y="1291"/>
      <point x="211" y="1335"/>
      <point x="211" y="1384" type="curve" smooth="yes"/>
      <point x="211" y="1401" type="line" smooth="yes"/>
      <point x="211" y="1489"/>
      <point x="213" y="1575"/>
      <point x="233" y="1575" type="curve" smooth="yes"/>
      <point x="262" y="1575"/>
      <point x="281" y="1536"/>
      <point x="281" y="1497" type="curve" smooth="yes"/>
      <point x="281" y="1431"/>
      <point x="242" y="1257"/>
      <point x="215" y="1257" type="curve" smooth="yes"/>
      <point x="213" y="1257"/>
      <point x="209" y="1260"/>
    </contour>
    <contour>
      <point x="444" y="1257" type="curve" smooth="yes"/>
      <point x="421" y="1292"/>
      <point x="418" y="1352"/>
      <point x="418" y="1409" type="curve" smooth="yes"/>
      <point x="418" y="1505"/>
      <point x="418" y="1575"/>
      <point x="459" y="1575" type="curve" smooth="yes"/>
      <point x="475" y="1575"/>
      <point x="485" y="1536"/>
      <point x="485" y="1497" type="curve" smooth="yes"/>
      <point x="485" y="1436"/>
      <point x="465" y="1255"/>
      <point x="451" y="1255" type="curve" smooth="yes"/>
      <point x="449" y="1255"/>
      <point x="446" y="1255"/>
    </contour>
  </outline>
</glyph>
<glyph name="numbersign" format="1">
  <advance width="790"/>
  <unicode hex="0023"/>
  <outline>
    <contour>
      <point x="444" y="-37" type="curve" smooth="yes"/>
      <point x="444" y="49"/>
      <point x="471" y="133"/>
      <point x="471" y="219" type="curve" smooth="yes"/>
      <point x="471" y="348"/>
      <point x="510" y="473"/>
      <point x="510" y="602" type="curve"/>
      <point x="455" y="608"/>
      <point x="399" y="608"/>
      <point x="344" y="608" type="curve" smooth="yes"/>
      <point x="319" y="608"/>
      <point x="295" y="608"/>
      <point x="272" y="600" type="curve"/>
      <point x="243" y="391"/>
      <point x="221" y="-57"/>
      <point x="184" y="-57" type="curve" smooth="yes"/>
      <point x="174" y="-57"/>
      <point x="150" y="-51"/>
      <point x="150" y="-37" type="curve" smooth="yes"/>
      <point x="150" y="57"/>
      <point x="162" y="152"/>
      <point x="172" y="244" type="curve" smooth="yes"/>
      <point x="186" y="363"/>
      <point x="200" y="483"/>
      <point x="225" y="600" type="curve"/>
      <point x="196" y="600"/>
      <point x="168" y="592"/>
      <point x="137" y="592" type="curve" smooth="yes"/>
      <point x="108" y="592"/>
      <point x="76" y="598"/>
      <point x="76" y="635" type="curve" smooth="yes"/>
      <point x="76" y="653"/>
      <point x="108" y="655"/>
      <point x="145" y="655" type="curve" smooth="yes"/>
      <point x="188" y="655" type="line" smooth="yes"/>
      <point x="204" y="655"/>
      <point x="219" y="655"/>
      <point x="229" y="657" type="curve"/>
      <point x="237" y="675"/>
      <point x="266" y="936"/>
      <point x="266" y="971" type="curve"/>
      <point x="243" y="971"/>
      <point x="222" y="967"/>
      <point x="197" y="967" type="curve" smooth="yes"/>
      <point x="172" y="967"/>
      <point x="119" y="969"/>
      <point x="117" y="1004" type="curve"/>
      <point x="133" y="1022" type="line"/>
      <point x="176" y="1022" type="line" smooth="yes"/>
      <point x="211" y="1022"/>
      <point x="253" y="1023"/>
      <point x="270" y="1028" type="curve"/>
      <point x="286" y="1169"/>
      <point x="317" y="1313"/>
      <point x="317" y="1456" type="curve" smooth="yes"/>
      <point x="317" y="1470"/>
      <point x="315" y="1483"/>
      <point x="315" y="1497" type="curve" smooth="yes"/>
      <point x="315" y="1517"/>
      <point x="319" y="1542"/>
      <point x="346" y="1542" type="curve"/>
      <point x="360" y="1513" type="line"/>
      <point x="360" y="1353"/>
      <point x="324" y="1198"/>
      <point x="324" y="1038" type="curve"/>
      <point x="353" y="1030"/>
      <point x="381" y="1030"/>
      <point x="412" y="1030" type="curve" smooth="yes"/>
      <point x="438" y="1030" type="line" smooth="yes"/>
      <point x="474" y="1030"/>
      <point x="513" y="1031"/>
      <point x="547" y="1044" type="curve"/>
      <point x="580" y="1204"/>
      <point x="611" y="1364"/>
      <point x="623" y="1526" type="curve"/>
      <point x="631" y="1536"/>
      <point x="641" y="1542"/>
      <point x="653" y="1542" type="curve" smooth="yes"/>
      <point x="663" y="1542"/>
      <point x="674" y="1532"/>
      <point x="678" y="1522" type="curve"/>
      <point x="676" y="1362"/>
      <point x="604" y="1215"/>
      <point x="604" y="1055" type="curve"/>
      <point x="608" y="1044" type="line"/>
      <point x="684" y="1044" type="line"/>
      <point x="711" y="1016" type="line"/>
      <point x="707" y="1006"/>
      <point x="698" y="983"/>
      <point x="684" y="983" type="curve" smooth="yes"/>
      <point x="655" y="983"/>
      <point x="627" y="987"/>
      <point x="598" y="987" type="curve"/>
      <point x="573" y="889"/>
      <point x="567" y="778"/>
      <point x="567" y="678" type="curve"/>
      <point x="578" y="674" type="line"/>
      <point x="588" y="674"/>
      <point x="602" y="676"/>
      <point x="616" y="676" type="curve" smooth="yes"/>
      <point x="645" y="676"/>
      <point x="674" y="670"/>
      <point x="674" y="637" type="curve" smooth="yes"/>
      <point x="674" y="623"/>
      <point x="651" y="614"/>
      <point x="641" y="610" type="curve"/>
      <point x="561" y="610" type="line"/>
      <point x="545" y="397"/>
      <point x="504" y="184"/>
      <point x="504" y="-31" type="curve"/>
      <point x="481" y="-57" type="line"/>
      <point x="469" y="-57"/>
      <point x="444" y="-53"/>
    </contour>
    <contour>
      <point x="283" y="666" type="curve"/>
      <point x="295" y="664"/>
      <point x="305" y="662"/>
      <point x="317" y="662" type="curve" smooth="yes"/>
      <point x="380" y="662"/>
      <point x="445" y="662"/>
      <point x="506" y="670" type="curve"/>
      <point x="522" y="766"/>
      <point x="543" y="865"/>
      <point x="543" y="963" type="curve" smooth="yes"/>
      <point x="543" y="983"/>
      <point x="434" y="983"/>
      <point x="385" y="983" type="curve" smooth="yes"/>
      <point x="360" y="983"/>
      <point x="335" y="981"/>
      <point x="317" y="971" type="curve"/>
      <point x="301" y="934"/>
      <point x="281" y="723"/>
      <point x="281" y="674" type="curve" smooth="yes"/>
      <point x="281" y="672"/>
      <point x="283" y="668"/>
    </contour>
  </outline>
</glyph>
<glyph name="percent" format="1">
  <advance width="1120"/>
  <unicode hex="0025"/>
  <outline>
    <contour>
      <point x="262" y="723" type="curve" smooth="yes"/>
      <point x="92" y="723"/>
      <point x="90" y="1065"/>
      <point x="90" y="1180" type="curve" smooth="yes"/>
      <point x="90" y="1188" type="line" smooth="yes"/>
      <point x="90" y="1251"/>
      <point x="127" y="1552"/>
      <point x="236" y="1552" type="curve" smooth="yes"/>
      <point x="240" y="1552" type="line" smooth="yes"/>
      <point x="262" y="1552"/>
      <point x="341" y="1549"/>
      <point x="377" y="1477" type="curve"/>
      <point x="426" y="1393"/>
      <point x="440" y="1253"/>
      <point x="440" y="1159" type="curve"/>
      <point x="436" y="1153" type="line"/>
      <point x="436" y="1120"/>
      <point x="440" y="1092"/>
      <point x="440" y="1059" type="curve" smooth="yes"/>
      <point x="440" y="967"/>
      <point x="430" y="723"/>
    </contour>
    <contour>
      <point x="145" y="1065" type="curve" smooth="yes"/>
      <point x="145" y="1022"/>
      <point x="158" y="776"/>
      <point x="258" y="776" type="curve" smooth="yes"/>
      <point x="385" y="776"/>
      <point x="393" y="999"/>
      <point x="393" y="1071" type="curve" smooth="yes"/>
      <point x="393" y="1161"/>
      <point x="377" y="1237"/>
      <point x="377" y="1327" type="curve"/>
      <point x="373" y="1346" type="line"/>
      <point x="373" y="1426"/>
      <point x="318" y="1497"/>
      <point x="242" y="1497" type="curve" smooth="yes"/>
      <point x="166" y="1497"/>
      <point x="158" y="1272"/>
      <point x="150" y="1231" type="curve"/>
      <point x="150" y="1215"/>
      <point x="141" y="1196"/>
      <point x="141" y="1178" type="curve" smooth="yes"/>
      <point x="141" y="1141"/>
      <point x="145" y="1104"/>
    </contour>
    <contour>
      <point x="858" y="815" type="curve" smooth="yes"/>
      <point x="1026" y="815"/>
      <point x="1036" y="571"/>
      <point x="1036" y="479" type="curve" smooth="yes"/>
      <point x="1036" y="446"/>
      <point x="1032" y="418"/>
      <point x="1032" y="385" type="curve"/>
      <point x="1036" y="379" type="line"/>
      <point x="1036" y="254"/>
      <point x="1009" y="27"/>
      <point x="831" y="27" type="curve" smooth="yes"/>
      <point x="720" y="27"/>
      <point x="686" y="295"/>
      <point x="686" y="350" type="curve" smooth="yes"/>
      <point x="686" y="358" type="line" smooth="yes"/>
      <point x="686" y="475"/>
      <point x="688" y="815"/>
    </contour>
    <contour>
      <point x="741" y="475" type="curve" smooth="yes"/>
      <point x="741" y="438"/>
      <point x="737" y="402"/>
      <point x="737" y="367" type="curve" smooth="yes"/>
      <point x="737" y="349"/>
      <point x="745" y="329"/>
      <point x="745" y="313" type="curve"/>
      <point x="753" y="280"/>
      <point x="762" y="94"/>
      <point x="836" y="94" type="curve" smooth="yes"/>
      <point x="973" y="94"/>
      <point x="983" y="273"/>
      <point x="983" y="403" type="curve" smooth="yes"/>
      <point x="983" y="469" type="line" smooth="yes"/>
      <point x="983" y="539"/>
      <point x="975" y="758"/>
      <point x="852" y="758" type="curve" smooth="yes"/>
      <point x="754" y="758"/>
      <point x="741" y="520"/>
    </contour>
    <contour>
      <point x="766" y="1505" type="curve" smooth="yes"/>
      <point x="766" y="1489"/>
      <point x="729" y="1337"/>
      <point x="725" y="1317" type="curve" smooth="yes"/>
      <point x="651" y="977"/>
      <point x="572" y="641"/>
      <point x="494" y="299" type="curve" smooth="yes"/>
      <point x="453" y="121" type="line" smooth="yes"/>
      <point x="443" y="78"/>
      <point x="436" y="-2"/>
      <point x="393" y="-6" type="curve"/>
      <point x="381" y="2"/>
      <point x="373" y="17"/>
      <point x="373" y="31" type="curve" smooth="yes"/>
      <point x="373" y="129"/>
      <point x="417" y="268"/>
      <point x="444" y="387" type="curve" smooth="yes"/>
      <point x="524" y="741"/>
      <point x="608" y="1096"/>
      <point x="700" y="1448" type="curve" smooth="yes"/>
      <point x="704" y="1460"/>
      <point x="719" y="1532"/>
      <point x="735" y="1532" type="curve" smooth="yes"/>
      <point x="751" y="1532"/>
      <point x="766" y="1523"/>
    </contour>
  </outline>
</glyph>
<glyph name="parenleft" format="1">
  <advance width="460"/>
  <unicode hex="0028"/>
  <outline>
    <contour>
      <point x="94" y="879" type="curve" smooth="yes"/>
      <point x="94" y="988"/>
      <point x="182" y="1622"/>
      <point x="293" y="1626" type="curve"/>
      <point x="313" y="1610" type="line"/>
      <point x="311" y="1540"/>
      <point x="265" y="1484"/>
      <point x="242" y="1423" type="curve"/>
      <point x="181" y="1253"/>
      <point x="150" y="1059"/>
      <point x="150" y="879" type="curve" smooth="yes"/>
      <point x="150" y="564"/>
      <point x="182" y="154"/>
      <point x="305" y="-139" type="curve" smooth="yes"/>
      <point x="330" y="-198"/>
      <point x="373" y="-252"/>
      <point x="389" y="-315" type="curve"/>
      <point x="383" y="-325"/>
      <point x="370" y="-340"/>
      <point x="358" y="-340" type="curve" smooth="yes"/>
      <point x="319" y="-340"/>
      <point x="305" y="-287"/>
      <point x="293" y="-258" type="curve" smooth="yes"/>
      <point x="162" y="35"/>
      <point x="94" y="517"/>
    </contour>
  </outline>
</glyph>
<glyph name="hyphen" format="1">
  <advance width="620"/>
  <unicode hex="002D"/>
  <unicode hex="2015"/>
  <outline>
    <contour>
      <point x="508" y="739" type="curve" smooth="yes"/>
      <point x="508" y="708"/>
      <point x="248" y="680"/>
      <point x="156" y="680" type="curve" smooth="yes"/>
      <point x="138" y="680"/>
      <point x="113" y="692"/>
      <point x="113" y="715" type="curve" smooth="yes"/>
      <point x="113" y="746"/>
      <point x="379" y="774"/>
      <point x="463" y="774" type="curve" smooth="yes"/>
      <point x="481" y="774"/>
      <point x="508" y="759"/>
    </contour>
  </outline>
</glyph>
<glyph name="four" format="1">
  <advance width="526"/>
  <unicode hex="0034"/>
  <outline>
    <contour>
      <point x="301" y="61" type="line"/>
      <point x="299" y="66" type="line"/>
      <point x="305" y="91"/>
      <point x="307" y="114"/>
      <point x="307" y="139" type="curve" smooth="yes"/>
      <point x="307" y="209"/>
      <point x="293" y="278"/>
      <point x="293" y="348" type="curve" smooth="yes"/>
      <point x="293" y="379"/>
      <point x="297" y="409"/>
      <point x="297" y="440" type="curve" smooth="yes"/>
      <point x="297" y="460"/>
      <point x="296" y="520"/>
      <point x="276" y="530" type="curve"/>
      <point x="235" y="530"/>
      <point x="197" y="518"/>
      <point x="156" y="518" type="curve" smooth="yes"/>
      <point x="123" y="518"/>
      <point x="125" y="523"/>
      <point x="100" y="541" type="curve"/>
      <point x="100" y="547" type="line" smooth="yes"/>
      <point x="100" y="570"/>
      <point x="107" y="592"/>
      <point x="111" y="612" type="curve"/>
      <point x="92" y="653" type="line"/>
      <point x="92" y="688"/>
      <point x="111" y="719"/>
      <point x="111" y="754" type="curve" smooth="yes"/>
      <point x="111" y="887"/>
      <point x="131" y="1022"/>
      <point x="131" y="1155" type="curve" smooth="yes"/>
      <point x="131" y="1481" type="line" smooth="yes"/>
      <point x="131" y="1497"/>
      <point x="123" y="1516"/>
      <point x="123" y="1532" type="curve" smooth="yes"/>
      <point x="123" y="1548"/>
      <point x="131" y="1559"/>
      <point x="147" y="1559" type="curve" smooth="yes"/>
      <point x="163" y="1559"/>
      <point x="184" y="1550"/>
      <point x="184" y="1530" type="curve" smooth="yes"/>
      <point x="184" y="1475"/>
      <point x="176" y="1421"/>
      <point x="176" y="1366" type="curve" smooth="yes"/>
      <point x="176" y="1343"/>
      <point x="178" y="1319"/>
      <point x="182" y="1296" type="curve"/>
      <point x="178" y="1290" type="line"/>
      <point x="180" y="1272"/>
      <point x="182" y="1253"/>
      <point x="182" y="1233" type="curve" smooth="yes"/>
      <point x="182" y="1061"/>
      <point x="158" y="889"/>
      <point x="158" y="717" type="curve" smooth="yes"/>
      <point x="158" y="697"/>
      <point x="172" y="677"/>
      <point x="172" y="657" type="curve" smooth="yes"/>
      <point x="172" y="637"/>
      <point x="158" y="622"/>
      <point x="158" y="602" type="curve" smooth="yes"/>
      <point x="158" y="588"/>
      <point x="158" y="563"/>
      <point x="178" y="563" type="curve" smooth="yes"/>
      <point x="201" y="563"/>
      <point x="263" y="572"/>
      <point x="281" y="582" type="curve"/>
      <point x="281" y="729"/>
      <point x="272" y="877"/>
      <point x="266" y="1024" type="curve" smooth="yes"/>
      <point x="264" y="1079"/>
      <point x="250" y="1133"/>
      <point x="250" y="1188" type="curve" smooth="yes"/>
      <point x="250" y="1206"/>
      <point x="275" y="1212"/>
      <point x="289" y="1212" type="curve"/>
      <point x="307" y="1190" type="line"/>
      <point x="307" y="1094"/>
      <point x="319" y="997"/>
      <point x="319" y="901" type="curve" smooth="yes"/>
      <point x="319" y="860"/>
      <point x="326" y="596"/>
      <point x="340" y="582" type="curve"/>
      <point x="365" y="582"/>
      <point x="389" y="590"/>
      <point x="416" y="590" type="curve" smooth="yes"/>
      <point x="430" y="590"/>
      <point x="455" y="587"/>
      <point x="455" y="567" type="curve" smooth="yes"/>
      <point x="455" y="514"/>
      <point x="340" y="576"/>
      <point x="340" y="498" type="curve" smooth="yes"/>
      <point x="340" y="451"/>
      <point x="348" y="177"/>
      <point x="358" y="152" type="curve"/>
      <point x="356" y="144"/>
      <point x="356" y="131"/>
      <point x="356" y="117" type="curve" smooth="yes"/>
      <point x="356" y="99"/>
      <point x="359" y="78"/>
      <point x="365" y="68" type="curve"/>
      <point x="358" y="43" type="line"/>
      <point x="365" y="29" type="line"/>
      <point x="365" y="0" type="line"/>
      <point x="332" y="-25" type="line"/>
      <point x="301" y="-12" type="line"/>
    </contour>
  </outline>
</glyph>
<glyph name="seven" format="1">
  <advance width="450"/>
  <unicode hex="0037"/>
  <outline>
    <contour>
      <point x="86" y="-4" type="line"/>
      <point x="86" y="47"/>
      <point x="111" y="94"/>
      <point x="123" y="143" type="curve" smooth="yes"/>
      <point x="205" y="493"/>
      <point x="227" y="856"/>
      <point x="272" y="1212" type="curve" smooth="yes"/>
      <point x="284" y="1312"/>
      <point x="307" y="1414"/>
      <point x="307" y="1516" type="curve" smooth="yes"/>
      <point x="307" y="1528"/>
      <point x="246" y="1528"/>
      <point x="236" y="1528" type="curve" smooth="yes"/>
      <point x="195" y="1528"/>
      <point x="156" y="1522"/>
      <point x="115" y="1522" type="curve"/>
      <point x="84" y="1542" type="line"/>
      <point x="102" y="1561" type="line"/>
      <point x="174" y="1561"/>
      <point x="247" y="1567"/>
      <point x="319" y="1567" type="curve" smooth="yes"/>
      <point x="339" y="1567"/>
      <point x="359" y="1548"/>
      <point x="365" y="1530" type="curve"/>
      <point x="349" y="1487"/>
      <point x="354" y="1440"/>
      <point x="350" y="1395" type="curve" smooth="yes"/>
      <point x="338" y="1252"/>
      <point x="189" y="131"/>
      <point x="158" y="86" type="curve"/>
      <point x="160" y="80"/>
      <point x="160" y="74"/>
      <point x="160" y="70" type="curve" smooth="yes"/>
      <point x="160" y="41"/>
      <point x="146" y="-25"/>
      <point x="111" y="-27" type="curve"/>
    </contour>
  </outline>
</glyph>
<glyph name="eight" format="1">
  <advance width="524"/>
  <unicode hex="0038"/>
  <outline>
    <contour>
      <point x="133" y="186" type="curve" smooth="yes"/>
      <point x="133" y="374"/>
      <point x="152" y="572"/>
      <point x="199" y="756" type="curve" smooth="yes"/>
      <point x="209" y="793"/>
      <point x="229" y="829"/>
      <point x="229" y="868" type="curve" smooth="yes"/>
      <point x="229" y="891"/>
      <point x="190" y="1003"/>
      <point x="182" y="1030" type="curve" smooth="yes"/>
      <point x="145" y="1143"/>
      <point x="88" y="1325"/>
      <point x="88" y="1442" type="curve" smooth="yes"/>
      <point x="88" y="1518"/>
      <point x="115" y="1610"/>
      <point x="207" y="1610" type="curve" smooth="yes"/>
      <point x="244" y="1610" type="line"/>
      <point x="271" y="1596"/>
      <point x="301" y="1590"/>
      <point x="315" y="1559" type="curve" smooth="yes"/>
      <point x="342" y="1498"/>
      <point x="354" y="1399"/>
      <point x="354" y="1331" type="curve" smooth="yes"/>
      <point x="354" y="1222"/>
      <point x="333" y="1114"/>
      <point x="313" y="1008" type="curve" smooth="yes"/>
      <point x="307" y="981"/>
      <point x="283" y="888"/>
      <point x="283" y="868" type="curve" smooth="yes"/>
      <point x="283" y="852"/>
      <point x="303" y="813"/>
      <point x="309" y="795" type="curve" smooth="yes"/>
      <point x="375" y="596"/>
      <point x="444" y="333"/>
      <point x="444" y="104" type="curve" smooth="yes"/>
      <point x="444" y="88"/>
      <point x="438" y="71"/>
      <point x="438" y="55" type="curve" smooth="yes"/>
      <point x="438" y="51"/>
      <point x="438" y="49"/>
      <point x="440" y="45" type="curve"/>
      <point x="401" y="-31"/>
      <point x="364" y="-78"/>
      <point x="272" y="-78" type="curve" smooth="yes"/>
      <point x="163" y="-78"/>
      <point x="133" y="104"/>
    </contour>
    <contour>
      <point x="205" y="53" type="line"/>
      <point x="207" y="18"/>
      <point x="229" y="-39"/>
      <point x="272" y="-39" type="curve" smooth="yes"/>
      <point x="366" y="-39"/>
      <point x="395" y="39"/>
      <point x="395" y="119" type="curve" smooth="yes"/>
      <point x="395" y="273"/>
      <point x="358" y="448"/>
      <point x="317" y="598" type="curve" smooth="yes"/>
      <point x="299" y="661"/>
      <point x="289" y="741"/>
      <point x="262" y="788" type="curve"/>
      <point x="199" y="700"/>
      <point x="180" y="291"/>
      <point x="180" y="168" type="curve" smooth="yes"/>
      <point x="180" y="131"/>
      <point x="193" y="94"/>
      <point x="207" y="59" type="curve"/>
    </contour>
    <contour>
      <point x="139" y="1438" type="curve" smooth="yes"/>
      <point x="139" y="1372"/>
      <point x="203" y="996"/>
      <point x="246" y="969" type="curve"/>
      <point x="283" y="1088"/>
      <point x="307" y="1210"/>
      <point x="307" y="1335" type="curve" smooth="yes"/>
      <point x="307" y="1382"/>
      <point x="299" y="1565"/>
      <point x="233" y="1565" type="curve" smooth="yes"/>
      <point x="227" y="1565"/>
      <point x="219" y="1563"/>
      <point x="211" y="1563" type="curve" smooth="yes"/>
      <point x="203" y="1563"/>
      <point x="192" y="1565"/>
      <point x="186" y="1569" type="curve"/>
      <point x="145" y="1536"/>
      <point x="139" y="1487"/>
    </contour>
  </outline>
</glyph>
<glyph name="D" format="1">
  <advance width="702"/>
  <unicode hex="0044"/>
  <outline>
    <contour>
      <point x="115" y="37" type="curve" smooth="yes"/>
      <point x="115" y="66"/>
      <point x="148" y="90"/>
      <point x="147" y="119" type="curve" smooth="yes"/>
      <point x="141" y="299" type="line"/>
      <point x="127" y="858" type="line"/>
      <point x="122" y="896"/>
      <point x="124" y="1305"/>
      <point x="111" y="1391" type="curve" smooth="yes"/>
      <point x="106" y="1426"/>
      <point x="82" y="1460"/>
      <point x="82" y="1497" type="curve" smooth="yes"/>
      <point x="82" y="1546"/>
      <point x="199" y="1546"/>
      <point x="236" y="1546" type="curve" smooth="yes"/>
      <point x="246" y="1546" type="line" smooth="yes"/>
      <point x="587" y="1546"/>
      <point x="597" y="988"/>
      <point x="597" y="837" type="curve" smooth="yes"/>
      <point x="597" y="592"/>
      <point x="488" y="218"/>
      <point x="332" y="90" type="curve" smooth="yes"/>
      <point x="293" y="59"/>
      <point x="213" y="-4"/>
      <point x="190" y="-4" type="curve" smooth="yes"/>
      <point x="165" y="-4"/>
      <point x="115" y="8"/>
    </contour>
    <contour>
      <point x="211" y="100" type="line"/>
      <point x="221" y="100" type="line"/>
      <point x="491" y="243"/>
      <point x="535" y="681"/>
      <point x="535" y="874" type="curve" smooth="yes"/>
      <point x="535" y="1132"/>
      <point x="492" y="1473"/>
      <point x="205" y="1473" type="curve" smooth="yes"/>
      <point x="189" y="1473"/>
      <point x="162" y="1473"/>
      <point x="162" y="1450" type="curve" smooth="yes"/>
      <point x="162" y="1335"/>
      <point x="180" y="1223"/>
      <point x="180" y="1110" type="curve" smooth="yes"/>
      <point x="180" y="848"/>
      <point x="211" y="588"/>
      <point x="211" y="330" type="curve" smooth="yes"/>
    </contour>
  </outline>
</glyph>
<glyph name="E" format="1">
  <advance width="497"/>
  <unicode hex="0045"/>
  <outline>
    <contour>
      <point x="124" y="33" type="curve" smooth="yes"/>
      <point x="124" y="60"/>
      <point x="123" y="82"/>
      <point x="123" y="109" type="curve" smooth="yes"/>
      <point x="123" y="113" type="line"/>
      <point x="125" y="412" type="line"/>
      <point x="123" y="1257" type="line" smooth="yes"/>
      <point x="123" y="1329"/>
      <point x="121" y="1413"/>
      <point x="119" y="1485" type="curve" smooth="yes"/>
      <point x="119" y="1514"/>
      <point x="131" y="1542"/>
      <point x="156" y="1542" type="curve" smooth="yes"/>
      <point x="283" y="1542" type="line" smooth="yes"/>
      <point x="312" y="1542"/>
      <point x="346" y="1542"/>
      <point x="346" y="1503" type="curve" smooth="yes"/>
      <point x="346" y="1464"/>
      <point x="301" y="1464"/>
      <point x="272" y="1464" type="curve" smooth="yes"/>
      <point x="254" y="1464"/>
      <point x="224" y="1468"/>
      <point x="206" y="1468" type="curve" smooth="yes"/>
      <point x="190" y="1468"/>
      <point x="182" y="1467"/>
      <point x="182" y="1444" type="curve" smooth="yes"/>
      <point x="182" y="1327"/>
      <point x="183" y="1213"/>
      <point x="183" y="1096" type="curve" smooth="yes"/>
      <point x="183" y="840" type="line" smooth="yes"/>
      <point x="183" y="834"/>
      <point x="185" y="836"/>
      <point x="191" y="836" type="curve" smooth="yes"/>
      <point x="230" y="838"/>
      <point x="263" y="840"/>
      <point x="302" y="840" type="curve" smooth="yes"/>
      <point x="328" y="840"/>
      <point x="336" y="826"/>
      <point x="336" y="810" type="curve" smooth="yes"/>
      <point x="336" y="785"/>
      <point x="328" y="776"/>
      <point x="305" y="776" type="curve" smooth="yes"/>
      <point x="188" y="776" type="line" smooth="yes"/>
      <point x="183" y="776"/>
      <point x="180" y="775"/>
      <point x="180" y="766" type="curve" smooth="yes"/>
      <point x="180" y="571"/>
      <point x="188" y="358"/>
      <point x="188" y="137" type="curve" smooth="yes"/>
      <point x="188" y="61" type="line"/>
      <point x="229" y="61"/>
      <point x="321" y="62"/>
      <point x="362" y="62" type="curve" smooth="yes"/>
      <point x="380" y="62" type="line" smooth="yes"/>
      <point x="398" y="62"/>
      <point x="418" y="59"/>
      <point x="418" y="35" type="curve" smooth="yes"/>
      <point x="418" y="-9"/>
      <point x="403" y="-12"/>
      <point x="299" y="-12" type="curve" smooth="yes"/>
      <point x="236" y="-12" type="line" smooth="yes"/>
      <point x="212" y="-12" type="line" smooth="yes"/>
      <point x="164" y="-12"/>
      <point x="124" y="-9"/>
    </contour>
  </outline>
</glyph>
<glyph name="K" format="1">
  <advance width="690"/>
  <unicode hex="004B"/>
  <outline>
    <contour>
      <point x="279" y="884" type="curve"/>
      <point x="265" y="919" type="line"/>
      <point x="256" y="902"/>
      <point x="189" y="792"/>
      <point x="172" y="763" type="curve"/>
      <point x="172" y="73" type="line" smooth="yes"/>
      <point x="172" y="34" type="line" smooth="yes"/>
      <point x="172" y="-4"/>
      <point x="169" y="-26"/>
      <point x="139" y="-26" type="curve" smooth="yes"/>
      <point x="108" y="-26"/>
      <point x="105" y="-5"/>
      <point x="105" y="38" type="curve" smooth="yes"/>
      <point x="105" y="657" type="line" smooth="yes"/>
      <point x="105" y="901"/>
      <point x="114" y="1199"/>
      <point x="114" y="1443" type="curve" smooth="yes"/>
      <point x="114" y="1496"/>
      <point x="116" y="1540"/>
      <point x="141" y="1540" type="curve" smooth="yes"/>
      <point x="182" y="1540"/>
      <point x="185" y="1526"/>
      <point x="185" y="1453" type="curve" smooth="yes"/>
      <point x="185" y="1281"/>
      <point x="178" y="911"/>
      <point x="178" y="864" type="curve"/>
      <point x="180" y="864" type="line"/>
      <point x="250" y="1011"/>
      <point x="304" y="1163"/>
      <point x="367" y="1313" type="curve"/>
      <point x="383" y="1354"/>
      <point x="479" y="1597"/>
      <point x="512" y="1597" type="curve" smooth="yes"/>
      <point x="530" y="1597"/>
      <point x="547" y="1587"/>
      <point x="547" y="1567" type="curve"/>
      <point x="541" y="1518"/>
      <point x="512" y="1489"/>
      <point x="494" y="1448" type="curve" smooth="yes"/>
      <point x="455" y="1364"/>
      <point x="341" y="1082"/>
      <point x="303" y="993" type="curve" smooth="yes"/>
      <point x="299" y="983"/>
      <point x="299" y="978"/>
      <point x="305" y="969" type="curve"/>
      <point x="432" y="647"/>
      <point x="551" y="190"/>
      <point x="602" y="12" type="curve" smooth="yes"/>
      <point x="604" y="7"/>
      <point x="605" y="2"/>
      <point x="605" y="-2" type="curve" smooth="yes"/>
      <point x="605" y="-22"/>
      <point x="586" y="-32"/>
      <point x="569" y="-32" type="curve" smooth="yes"/>
      <point x="558" y="-32"/>
      <point x="548" y="-28"/>
      <point x="545" y="-19" type="curve" smooth="yes"/>
      <point x="508" y="100"/>
      <point x="330" y="737"/>
    </contour>
  </outline>
</glyph>
<glyph name="M" format="1">
  <advance width="856"/>
  <unicode hex="004D"/>
  <outline>
    <contour>
      <point x="668" y="10" type="curve" smooth="yes"/>
      <point x="668" y="197" type="line" smooth="yes"/>
      <point x="668" y="422"/>
      <point x="653" y="645"/>
      <point x="653" y="870" type="curve" smooth="yes"/>
      <point x="653" y="946"/>
      <point x="657" y="1024"/>
      <point x="657" y="1100" type="curve" smooth="yes"/>
      <point x="657" y="1161"/>
      <point x="651" y="1221"/>
      <point x="649" y="1282" type="curve"/>
      <point x="645" y="1278"/>
      <point x="646" y="1274"/>
      <point x="645" y="1268" type="curve" smooth="yes"/>
      <point x="605" y="1011"/>
      <point x="520" y="570"/>
      <point x="502" y="483" type="curve" smooth="yes"/>
      <point x="495" y="450"/>
      <point x="472" y="338"/>
      <point x="465" y="296" type="curve" smooth="yes"/>
      <point x="459" y="260"/>
      <point x="438" y="238"/>
      <point x="418" y="238" type="curve" smooth="yes"/>
      <point x="399" y="238"/>
      <point x="380" y="258"/>
      <point x="375" y="302" type="curve" smooth="yes"/>
      <point x="363" y="392"/>
      <point x="190" y="1292"/>
      <point x="172" y="1317" type="curve"/>
      <point x="166" y="1178"/>
      <point x="164" y="1040"/>
      <point x="164" y="903" type="curve" smooth="yes"/>
      <point x="164" y="686"/>
      <point x="170" y="469"/>
      <point x="170" y="252" type="curve" smooth="yes"/>
      <point x="170" y="186"/>
      <point x="180" y="123"/>
      <point x="180" y="57" type="curve" smooth="yes"/>
      <point x="180" y="34"/>
      <point x="180" y="20"/>
      <point x="164" y="4" type="curve"/>
      <point x="113" y="4"/>
      <point x="106" y="62"/>
      <point x="106" y="111" type="curve" smooth="yes"/>
      <point x="106" y="453" type="line" smooth="yes"/>
      <point x="106" y="590"/>
      <point x="109" y="729"/>
      <point x="109" y="868" type="curve" smooth="yes"/>
      <point x="109" y="1030"/>
      <point x="115" y="1192"/>
      <point x="115" y="1354" type="curve" smooth="yes"/>
      <point x="115" y="1533" type="line" smooth="yes"/>
      <point x="115" y="1548"/>
      <point x="131" y="1561"/>
      <point x="145" y="1561" type="curve" smooth="yes"/>
      <point x="154" y="1561"/>
      <point x="162" y="1556"/>
      <point x="166" y="1544" type="curve" smooth="yes"/>
      <point x="186" y="1479"/>
      <point x="314" y="971"/>
      <point x="369" y="717" type="curve" smooth="yes"/>
      <point x="383" y="654"/>
      <point x="423" y="413"/>
      <point x="429" y="376" type="curve"/>
      <point x="441" y="438"/>
      <point x="482" y="692"/>
      <point x="492" y="739" type="curve" smooth="yes"/>
      <point x="527" y="907"/>
      <point x="555" y="1073"/>
      <point x="586" y="1241" type="curve" smooth="yes"/>
      <point x="604" y="1341"/>
      <point x="632" y="1490"/>
      <point x="637" y="1523" type="curve" smooth="yes"/>
      <point x="642" y="1552"/>
      <point x="657" y="1566"/>
      <point x="672" y="1566" type="curve" smooth="yes"/>
      <point x="686" y="1566"/>
      <point x="700" y="1553"/>
      <point x="700" y="1528" type="curve" smooth="yes"/>
      <point x="700" y="1325" type="line" smooth="yes"/>
      <point x="700" y="1016"/>
      <point x="733" y="706"/>
      <point x="733" y="399" type="curve" smooth="yes"/>
      <point x="733" y="273"/>
      <point x="743" y="198"/>
      <point x="743" y="24" type="curve" smooth="yes"/>
      <point x="743" y="-42"/>
      <point x="730" y="-47"/>
      <point x="713" y="-47" type="curve" smooth="yes"/>
      <point x="670" y="-47"/>
      <point x="668" y="-20"/>
    </contour>
  </outline>
</glyph>
<glyph name="N" format="1">
  <advance width="772"/>
  <unicode hex="004E"/>
  <outline>
    <contour>
      <point x="182" y="1426" type="curve"/>
      <point x="180" y="1406"/>
      <point x="180" y="1361"/>
      <point x="180" y="1341" type="curve" smooth="yes"/>
      <point x="180" y="600" type="line" smooth="yes"/>
      <point x="180" y="403"/>
      <point x="190" y="213"/>
      <point x="190" y="16" type="curve"/>
      <point x="176" y="0" type="line"/>
      <point x="129" y="0" type="line"/>
      <point x="123" y="16" type="line"/>
      <point x="127" y="32"/>
      <point x="127" y="80"/>
      <point x="127" y="98" type="curve" smooth="yes"/>
      <point x="127" y="336"/>
      <point x="122" y="573"/>
      <point x="122" y="811" type="curve" smooth="yes"/>
      <point x="122" y="1079" type="line" smooth="yes"/>
      <point x="122" y="1208"/>
      <point x="119" y="1337"/>
      <point x="119" y="1466" type="curve" smooth="yes"/>
      <point x="119" y="1480"/>
      <point x="117" y="1495"/>
      <point x="117" y="1509" type="curve" smooth="yes"/>
      <point x="117" y="1546"/>
      <point x="139" y="1552"/>
      <point x="172" y="1552" type="curve" smooth="yes"/>
      <point x="190" y="1552"/>
      <point x="214" y="1532"/>
      <point x="219" y="1513" type="curve" smooth="yes"/>
      <point x="246" y="1404"/>
      <point x="278" y="1232"/>
      <point x="311" y="1096" type="curve" smooth="yes"/>
      <point x="341" y="972"/>
      <point x="410" y="723"/>
      <point x="459" y="539" type="curve"/>
      <point x="480" y="452"/>
      <point x="525" y="272"/>
      <point x="565" y="150" type="curve"/>
      <point x="577" y="177"/>
      <point x="578" y="219"/>
      <point x="578" y="248" type="curve" smooth="yes"/>
      <point x="578" y="486"/>
      <point x="586" y="723"/>
      <point x="586" y="961" type="curve" smooth="yes"/>
      <point x="586" y="1067"/>
      <point x="589" y="1172"/>
      <point x="589" y="1278" type="curve" smooth="yes"/>
      <point x="587" y="1567" type="line"/>
      <point x="593" y="1587"/>
      <point x="609" y="1595"/>
      <point x="629" y="1595" type="curve" smooth="yes"/>
      <point x="642" y="1595"/>
      <point x="645" y="1566"/>
      <point x="645" y="1535" type="curve" smooth="yes"/>
      <point x="645" y="1506"/>
      <point x="642" y="1475"/>
      <point x="642" y="1460" type="curve" smooth="yes"/>
      <point x="642" y="1329" type="line" smooth="yes"/>
      <point x="642" y="1000"/>
      <point x="637" y="685"/>
      <point x="637" y="360" type="curve" smooth="yes"/>
      <point x="637" y="255"/>
      <point x="627" y="142"/>
      <point x="627" y="37" type="curve" smooth="yes"/>
      <point x="627" y="2"/>
      <point x="614" y="-23"/>
      <point x="575" y="-23" type="curve" smooth="yes"/>
      <point x="528" y="-23"/>
      <point x="527" y="63"/>
      <point x="518" y="94" type="curve" smooth="yes"/>
      <point x="473" y="256"/>
      <point x="307" y="846"/>
      <point x="266" y="1016" type="curve" smooth="yes"/>
      <point x="238" y="1133"/>
      <point x="195" y="1361"/>
    </contour>
  </outline>
</glyph>
<glyph name="V" format="1">
  <advance width="669"/>
  <unicode hex="0056"/>
  <outline>
    <contour>
      <point x="344" y="-10" type="curve"/>
      <point x="307" y="137"/>
      <point x="285" y="292"/>
      <point x="262" y="442" type="curve"/>
      <point x="223" y="684"/>
      <point x="189" y="932"/>
      <point x="150" y="1174" type="curve" smooth="yes"/>
      <point x="140" y="1233"/>
      <point x="99" y="1479"/>
      <point x="74" y="1526" type="curve"/>
      <point x="80" y="1544"/>
      <point x="99" y="1548"/>
      <point x="115" y="1548" type="curve" smooth="yes"/>
      <point x="152" y="1548"/>
      <point x="156" y="1487"/>
      <point x="160" y="1462" type="curve" smooth="yes"/>
      <point x="236" y="1056"/>
      <point x="268" y="645"/>
      <point x="362" y="242" type="curve"/>
      <point x="374" y="305"/>
      <point x="379" y="373"/>
      <point x="387" y="436" type="curve" smooth="yes"/>
      <point x="420" y="723"/>
      <point x="454" y="1011"/>
      <point x="485" y="1298" type="curve" smooth="yes"/>
      <point x="493" y="1370"/>
      <point x="502" y="1444"/>
      <point x="502" y="1516" type="curve" smooth="yes"/>
      <point x="502" y="1524" type="line"/>
      <point x="516" y="1538"/>
      <point x="530" y="1554"/>
      <point x="553" y="1554" type="curve"/>
      <point x="565" y="1546" type="line"/>
      <point x="561" y="1546" type="line"/>
      <point x="582" y="1530" type="line"/>
      <point x="582" y="1444"/>
      <point x="553" y="1362"/>
      <point x="553" y="1276" type="curve"/>
      <point x="522" y="1221"/>
      <point x="416" y="160"/>
      <point x="414" y="27" type="curve"/>
      <point x="408" y="11"/>
      <point x="395" y="-18"/>
      <point x="375" y="-18" type="curve" smooth="yes"/>
      <point x="367" y="-18"/>
      <point x="352" y="-12"/>
    </contour>
    <contour>
      <point x="362" y="236" type="line"/>
      <point x="358" y="231" type="line"/>
      <point x="365" y="231" type="line"/>
    </contour>
  </outline>
</glyph>
<glyph name="Z" format="1">
  <advance width="471"/>
  <unicode hex="005A"/>
  <outline>
    <contour>
      <point x="78" y="8" type="curve"/>
      <point x="176" y="182"/>
      <point x="164" y="408"/>
      <point x="203" y="588" type="curve"/>
      <point x="234" y="813"/>
      <point x="266" y="1043"/>
      <point x="297" y="1268" type="curve" smooth="yes"/>
      <point x="307" y="1344"/>
      <point x="322" y="1423"/>
      <point x="324" y="1499" type="curve"/>
      <point x="279" y="1499"/>
      <point x="233" y="1489"/>
      <point x="186" y="1489" type="curve" smooth="yes"/>
      <point x="159" y="1489"/>
      <point x="94" y="1491"/>
      <point x="94" y="1530" type="curve"/>
      <point x="109" y="1546" type="line"/>
      <point x="125" y="1542"/>
      <point x="142" y="1542"/>
      <point x="158" y="1542" type="curve" smooth="yes"/>
      <point x="224" y="1542"/>
      <point x="284" y="1563"/>
      <point x="350" y="1563" type="curve" smooth="yes"/>
      <point x="373" y="1563"/>
      <point x="383" y="1546"/>
      <point x="383" y="1526" type="curve"/>
      <point x="352" y="1456"/>
      <point x="354" y="1321"/>
      <point x="342" y="1239" type="curve" smooth="yes"/>
      <point x="293" y="891"/>
      <point x="256" y="541"/>
      <point x="199" y="195" type="curve" smooth="yes"/>
      <point x="191" y="142"/>
      <point x="152" y="94"/>
      <point x="152" y="39" type="curve"/>
      <point x="197" y="39"/>
      <point x="240" y="49"/>
      <point x="285" y="49" type="curve" smooth="yes"/>
      <point x="312" y="49"/>
      <point x="371" y="47"/>
      <point x="371" y="8" type="curve"/>
      <point x="352" y="-10" type="line"/>
      <point x="270" y="-10"/>
      <point x="191" y="-18"/>
      <point x="109" y="-18" type="curve" smooth="yes"/>
      <point x="91" y="-18"/>
      <point x="84" y="-8"/>
    </contour>
  </outline>
</glyph>
<glyph name="backslash" format="1">
  <advance width="559"/>
  <unicode hex="005C"/>
  <outline>
    <contour>
      <point x="455" y="-6" type="curve"/>
      <point x="412" y="-2"/>
      <point x="405" y="78"/>
      <point x="395" y="121" type="curve" smooth="yes"/>
      <point x="354" y="299" type="line"/>
      <point x="274" y="641"/>
      <point x="189" y="977"/>
      <point x="123" y="1317" type="curve" smooth="yes"/>
      <point x="119" y="1337"/>
      <point x="82" y="1489"/>
      <point x="82" y="1505" type="curve" smooth="yes"/>
      <point x="82" y="1523"/>
      <point x="97" y="1532"/>
      <point x="113" y="1532" type="curve" smooth="yes"/>
      <point x="129" y="1532"/>
      <point x="143" y="1460"/>
      <point x="147" y="1448" type="curve" smooth="yes"/>
      <point x="239" y="1096"/>
      <point x="323" y="741"/>
      <point x="403" y="387" type="curve" smooth="yes"/>
      <point x="430" y="266"/>
      <point x="475" y="129"/>
      <point x="475" y="31" type="curve" smooth="yes"/>
      <point x="475" y="17"/>
      <point x="467" y="2"/>
    </contour>
  </outline>
</glyph>
<glyph name="a" format="1">
  <advance width="667"/>
  <unicode hex="0061"/>
  <outline>
    <contour>
      <point x="221" y="315" type="curve" smooth="yes"/>
      <point x="205" y="315"/>
      <point x="209" y="307"/>
      <point x="205" y="299" type="curve"/>
      <point x="201" y="258" type="line" smooth="yes"/>
      <point x="197" y="219"/>
      <point x="168" y="-10"/>
      <point x="123" y="-10" type="curve" smooth="yes"/>
      <point x="107" y="-10"/>
      <point x="82" y="7"/>
      <point x="82" y="25" type="curve" smooth="yes"/>
      <point x="82" y="29"/>
      <point x="86" y="33"/>
      <point x="86" y="37" type="curve" smooth="yes"/>
      <point x="145" y="270"/>
      <point x="180" y="507"/>
      <point x="219" y="743" type="curve" smooth="yes"/>
      <point x="239" y="866"/>
      <point x="273" y="987"/>
      <point x="291" y="1112" type="curve" smooth="yes"/>
      <point x="297" y="1157"/>
      <point x="312" y="1339"/>
      <point x="326" y="1364" type="curve"/>
      <point x="334" y="1364"/>
      <point x="344" y="1362"/>
      <point x="354" y="1362" type="curve" smooth="yes"/>
      <point x="368" y="1362"/>
      <point x="381" y="1364"/>
      <point x="391" y="1374" type="curve"/>
      <point x="407" y="1374"/>
      <point x="428" y="1363"/>
      <point x="428" y="1343" type="curve" smooth="yes"/>
      <point x="428" y="1212"/>
      <point x="443" y="1141"/>
      <point x="455" y="1010" type="curve" smooth="yes"/>
      <point x="483" y="683"/>
      <point x="539" y="254"/>
      <point x="569" y="18" type="curve" smooth="yes"/>
      <point x="569" y="12" type="line" smooth="yes"/>
      <point x="569" y="0"/>
      <point x="565" y="-11"/>
      <point x="553" y="-18" type="curve"/>
      <point x="516" y="-18"/>
      <point x="508" y="-18"/>
      <point x="502" y="27" type="curve" smooth="yes"/>
      <point x="492" y="107"/>
      <point x="482" y="207"/>
      <point x="468" y="295" type="curve"/>
      <point x="437" y="303"/>
      <point x="398" y="305"/>
      <point x="367" y="305" type="curve" smooth="yes"/>
      <point x="313" y="305"/>
      <point x="270" y="315"/>
    </contour>
    <contour>
      <point x="223" y="376" type="curve" smooth="yes"/>
      <point x="223" y="359"/>
      <point x="403" y="350"/>
      <point x="438" y="350" type="curve" smooth="yes"/>
      <point x="459" y="350" type="line"/>
      <point x="440" y="625"/>
      <point x="396" y="1065"/>
      <point x="381" y="1221" type="curve"/>
      <point x="344" y="1039"/>
      <point x="305" y="856"/>
      <point x="270" y="674" type="curve" smooth="yes"/>
      <point x="258" y="615"/>
      <point x="223" y="431"/>
    </contour>
  </outline>
</glyph>
<glyph name="b" format="1">
  <advance width="530"/>
  <unicode hex="0062"/>
  <outline>
    <contour>
      <point x="104" y="20" type="curve"/>
      <point x="102" y="40"/>
      <point x="102" y="61"/>
      <point x="102" y="84" type="curve" smooth="yes"/>
      <point x="102" y="227"/>
      <point x="123" y="373"/>
      <point x="123" y="516" type="curve" smooth="yes"/>
      <point x="123" y="577"/>
      <point x="119" y="639"/>
      <point x="119" y="698" type="curve" smooth="yes"/>
      <point x="119" y="862"/>
      <point x="131" y="1024"/>
      <point x="131" y="1188" type="curve" smooth="yes"/>
      <point x="131" y="1227"/>
      <point x="131" y="1266"/>
      <point x="129" y="1307" type="curve"/>
      <point x="121" y="1317" type="line"/>
      <point x="121" y="1329" type="line" smooth="yes"/>
      <point x="121" y="1358"/>
      <point x="127" y="1382"/>
      <point x="164" y="1382" type="curve" smooth="yes"/>
      <point x="191" y="1382"/>
      <point x="346" y="1344"/>
      <point x="348" y="1315" type="curve"/>
      <point x="348" y="1315"/>
      <point x="346" y="1311"/>
      <point x="346" y="1309" type="curve"/>
      <point x="399" y="1225"/>
      <point x="410" y="1149"/>
      <point x="410" y="1038" type="curve" smooth="yes"/>
      <point x="410" y="954"/>
      <point x="404" y="869"/>
      <point x="377" y="795" type="curve"/>
      <point x="379" y="795" type="line"/>
      <point x="365" y="762"/>
      <point x="337" y="729"/>
      <point x="319" y="698" type="curve"/>
      <point x="405" y="630"/>
      <point x="416" y="495"/>
      <point x="420" y="399" type="curve" smooth="yes"/>
      <point x="422" y="346" type="line"/>
      <point x="422" y="317" type="line" smooth="yes"/>
      <point x="422" y="145"/>
      <point x="336" y="-23"/>
      <point x="143" y="-23" type="curve" smooth="yes"/>
      <point x="118" y="-23"/>
      <point x="104" y="-3"/>
    </contour>
    <contour>
      <point x="184" y="248" type="curve"/>
      <point x="174" y="230"/>
      <point x="172" y="191"/>
      <point x="172" y="150" type="curve" smooth="yes"/>
      <point x="172" y="113"/>
      <point x="174" y="77"/>
      <point x="174" y="57" type="curve"/>
      <point x="280" y="57"/>
      <point x="358" y="181"/>
      <point x="358" y="279" type="curve" smooth="yes"/>
      <point x="358" y="281"/>
      <point x="359" y="299"/>
      <point x="359" y="325" type="curve" smooth="yes"/>
      <point x="359" y="428"/>
      <point x="343" y="668"/>
      <point x="188" y="668" type="curve"/>
      <point x="182" y="576"/>
      <point x="178" y="483"/>
      <point x="178" y="389" type="curve" smooth="yes"/>
      <point x="178" y="342" type="line" smooth="yes"/>
      <point x="178" y="310"/>
      <point x="179" y="277"/>
    </contour>
    <contour>
      <point x="182" y="766" type="line"/>
      <point x="184" y="758"/>
      <point x="188" y="747"/>
      <point x="190" y="739" type="curve"/>
      <point x="205" y="739" type="line" smooth="yes"/>
      <point x="324" y="739"/>
      <point x="340" y="903"/>
      <point x="340" y="1012" type="curve" smooth="yes"/>
      <point x="340" y="1061"/>
      <point x="336" y="1096"/>
      <point x="334" y="1139" type="curve"/>
      <point x="330" y="1143" type="line"/>
      <point x="326" y="1202"/>
      <point x="307" y="1313"/>
      <point x="227" y="1313" type="curve" smooth="yes"/>
      <point x="188" y="1313"/>
      <point x="182" y="1144"/>
      <point x="182" y="1044" type="curve" smooth="yes"/>
      <point x="182" y="970"/>
      <point x="184" y="967"/>
      <point x="184" y="934" type="curve" smooth="yes"/>
      <point x="184" y="887"/>
      <point x="182" y="840"/>
      <point x="182" y="791" type="curve" smooth="yes"/>
    </contour>
  </outline>
</glyph>
<glyph name="c" format="1">
  <advance width="550"/>
  <unicode hex="0063"/>
  <outline>
    <contour>
      <point x="319" y="-33" type="line"/>
      <point x="284" y="-15"/>
      <point x="250" y="-15"/>
      <point x="217" y="10" type="curve" smooth="yes"/>
      <point x="104" y="92"/>
      <point x="96" y="294"/>
      <point x="96" y="446" type="curve" smooth="yes"/>
      <point x="96" y="680" type="line" smooth="yes"/>
      <point x="96" y="832"/>
      <point x="96" y="1211"/>
      <point x="225" y="1313" type="curve" smooth="yes"/>
      <point x="258" y="1338"/>
      <point x="297" y="1344"/>
      <point x="332" y="1364" type="curve"/>
      <point x="414" y="1364" type="line"/>
      <point x="432" y="1360"/>
      <point x="453" y="1358"/>
      <point x="453" y="1333" type="curve"/>
      <point x="426" y="1303" type="line"/>
      <point x="340" y="1303" type="line" smooth="yes"/>
      <point x="193" y="1303"/>
      <point x="178" y="940"/>
      <point x="178" y="838" type="curve"/>
      <point x="174" y="827" type="line"/>
      <point x="174" y="690"/>
      <point x="166" y="551"/>
      <point x="166" y="414" type="curve" smooth="yes"/>
      <point x="166" y="260"/>
      <point x="180" y="35"/>
      <point x="383" y="35" type="curve" smooth="yes"/>
      <point x="401" y="35"/>
      <point x="420" y="41"/>
      <point x="434" y="53" type="curve"/>
      <point x="448" y="53"/>
      <point x="465" y="47"/>
      <point x="465" y="31" type="curve" smooth="yes"/>
      <point x="465" y="6"/>
      <point x="407" y="-25"/>
      <point x="387" y="-33" type="curve"/>
    </contour>
  </outline>
</glyph>
<glyph name="d" format="1">
  <advance width="653"/>
  <unicode hex="0064"/>
  <outline>
    <contour>
      <point x="123" y="45" type="curve" smooth="yes"/>
      <point x="117" y="164"/>
      <point x="115" y="282"/>
      <point x="115" y="401" type="curve" smooth="yes"/>
      <point x="115" y="563"/>
      <point x="119" y="723"/>
      <point x="119" y="885" type="curve" smooth="yes"/>
      <point x="119" y="1012"/>
      <point x="117" y="1141"/>
      <point x="111" y="1270" type="curve"/>
      <point x="99" y="1280"/>
      <point x="94" y="1295"/>
      <point x="94" y="1311" type="curve" smooth="yes"/>
      <point x="94" y="1331"/>
      <point x="123" y="1356"/>
      <point x="143" y="1356" type="curve" smooth="yes"/>
      <point x="166" y="1356"/>
      <point x="177" y="1331"/>
      <point x="195" y="1321" type="curve" smooth="yes"/>
      <point x="222" y="1307"/>
      <point x="262" y="1310"/>
      <point x="291" y="1296" type="curve" smooth="yes"/>
      <point x="346" y="1269"/>
      <point x="391" y="1208"/>
      <point x="442" y="1171" type="curve"/>
      <point x="440" y="1167" type="line"/>
      <point x="444" y="1142"/>
      <point x="492" y="1094"/>
      <point x="506" y="1057" type="curve" smooth="yes"/>
      <point x="535" y="979"/>
      <point x="539" y="883"/>
      <point x="539" y="813" type="curve" smooth="yes"/>
      <point x="539" y="780"/>
      <point x="537" y="750"/>
      <point x="537" y="717" type="curve" smooth="yes"/>
      <point x="537" y="706"/>
      <point x="536" y="693"/>
      <point x="536" y="680" type="curve" smooth="yes"/>
      <point x="536" y="658"/>
      <point x="538" y="635"/>
      <point x="547" y="618" type="curve"/>
      <point x="498" y="356"/>
      <point x="555" y="140"/>
      <point x="283" y="-10" type="curve"/>
      <point x="141" y="-10" type="line" smooth="yes"/>
      <point x="125" y="-10"/>
      <point x="123" y="35"/>
    </contour>
    <contour>
      <point x="207" y="76" type="line"/>
      <point x="213" y="49" type="line"/>
      <point x="276" y="49" type="line"/>
      <point x="294" y="72"/>
      <point x="309" y="80"/>
      <point x="332" y="100" type="curve" smooth="yes"/>
      <point x="449" y="206"/>
      <point x="477" y="420"/>
      <point x="477" y="592" type="curve" smooth="yes"/>
      <point x="477" y="619"/>
      <point x="475" y="643"/>
      <point x="475" y="666" type="curve"/>
      <point x="465" y="872" type="line" smooth="yes"/>
      <point x="459" y="1009"/>
      <point x="369" y="1262"/>
      <point x="201" y="1262" type="curve" smooth="yes"/>
      <point x="185" y="1262"/>
      <point x="178" y="1094"/>
      <point x="178" y="883" type="curve" smooth="yes"/>
      <point x="178" y="602"/>
      <point x="191" y="260"/>
      <point x="201" y="119" type="curve"/>
      <point x="199" y="80" type="line"/>
    </contour>
  </outline>
</glyph>
<glyph name="f" format="1">
  <advance width="526"/>
  <unicode hex="0066"/>
  <outline>
    <contour>
      <point x="98" y="2" type="line"/>
      <point x="114" y="168"/>
      <point x="117" y="334"/>
      <point x="117" y="500" type="curve" smooth="yes"/>
      <point x="117" y="774"/>
      <point x="145" y="1051"/>
      <point x="145" y="1325" type="curve" smooth="yes"/>
      <point x="145" y="1352"/>
      <point x="178" y="1364"/>
      <point x="201" y="1364" type="curve" smooth="yes"/>
      <point x="238" y="1364"/>
      <point x="446" y="1350"/>
      <point x="446" y="1305" type="curve" smooth="yes"/>
      <point x="446" y="1274"/>
      <point x="396" y="1270"/>
      <point x="373" y="1270" type="curve"/>
      <point x="340" y="1288"/>
      <point x="297" y="1290"/>
      <point x="260" y="1290" type="curve" smooth="yes"/>
      <point x="213" y="1290"/>
      <point x="231" y="1284"/>
      <point x="213" y="1247" type="curve"/>
      <point x="213" y="1100"/>
      <point x="193" y="958"/>
      <point x="193" y="815" type="curve" smooth="yes"/>
      <point x="193" y="743" type="line" smooth="yes"/>
      <point x="193" y="725"/>
      <point x="330" y="754"/>
      <point x="330" y="705" type="curve" smooth="yes"/>
      <point x="330" y="680"/>
      <point x="301" y="666"/>
      <point x="281" y="666" type="curve" smooth="yes"/>
      <point x="258" y="666"/>
      <point x="236" y="678"/>
      <point x="213" y="678" type="curve" smooth="yes"/>
      <point x="176" y="678"/>
      <point x="176" y="603"/>
      <point x="176" y="578" type="curve" smooth="yes"/>
      <point x="176" y="346" type="line" smooth="yes"/>
      <point x="176" y="248"/>
      <point x="188" y="151"/>
      <point x="188" y="53" type="curve" smooth="yes"/>
      <point x="188" y="20"/>
      <point x="182" y="-29"/>
      <point x="139" y="-29" type="curve"/>
    </contour>
    <contour>
      <point x="111" y="1014" type="line"/>
      <point x="111" y="1012" type="line" smooth="yes"/>
      <point x="111" y="1010"/>
      <point x="111" y="1010"/>
      <point x="109" y="1010" type="curve" smooth="yes"/>
      <point x="107" y="1010"/>
      <point x="106" y="1010"/>
      <point x="106" y="1012" type="curve" smooth="yes"/>
      <point x="106" y="1014"/>
      <point x="107" y="1014"/>
      <point x="109" y="1014" type="curve" smooth="yes"/>
    </contour>
  </outline>
</glyph>
<glyph name="h" format="1">
  <advance width="606"/>
  <unicode hex="0068"/>
  <outline>
    <contour>
      <point x="418" y="-2" type="curve"/>
      <point x="414" y="180"/>
      <point x="408" y="365"/>
      <point x="408" y="547" type="curve"/>
      <point x="403" y="555" type="line"/>
      <point x="403" y="557"/>
      <point x="410" y="573"/>
      <point x="410" y="573" type="curve"/>
      <point x="410" y="598"/>
      <point x="407" y="624"/>
      <point x="403" y="649" type="curve"/>
      <point x="371" y="657" type="line"/>
      <point x="359" y="653"/>
      <point x="344" y="651"/>
      <point x="330" y="651" type="curve" smooth="yes"/>
      <point x="285" y="651"/>
      <point x="244" y="672"/>
      <point x="199" y="672" type="curve"/>
      <point x="178" y="664" type="line"/>
      <point x="178" y="578"/>
      <point x="172" y="492"/>
      <point x="172" y="406" type="curve"/>
      <point x="178" y="397" type="line"/>
      <point x="178" y="282"/>
      <point x="190" y="170"/>
      <point x="190" y="55" type="curve" smooth="yes"/>
      <point x="190" y="35"/>
      <point x="183" y="2"/>
      <point x="156" y="2" type="curve" smooth="yes"/>
      <point x="111" y="2"/>
      <point x="111" y="94"/>
      <point x="111" y="125" type="curve" smooth="yes"/>
      <point x="111" y="250"/>
      <point x="115" y="375"/>
      <point x="115" y="500" type="curve" smooth="yes"/>
      <point x="115" y="525"/>
      <point x="115" y="686"/>
      <point x="109" y="700" type="curve"/>
      <point x="119" y="720"/>
      <point x="119" y="811"/>
      <point x="119" y="836" type="curve" smooth="yes"/>
      <point x="119" y="996"/>
      <point x="104" y="1155"/>
      <point x="104" y="1315" type="curve" smooth="yes"/>
      <point x="104" y="1333"/>
      <point x="119" y="1354"/>
      <point x="139" y="1354" type="curve" smooth="yes"/>
      <point x="178" y="1354"/>
      <point x="180" y="1272"/>
      <point x="180" y="1235" type="curve" smooth="yes"/>
      <point x="180" y="1069"/>
      <point x="172" y="895"/>
      <point x="172" y="735" type="curve" smooth="yes"/>
      <point x="172" y="712"/>
      <point x="291" y="711"/>
      <point x="329" y="711" type="curve" smooth="yes"/>
      <point x="336" y="711" type="line" smooth="yes"/>
      <point x="385" y="711"/>
      <point x="410" y="725"/>
      <point x="410" y="778" type="curve" smooth="yes"/>
      <point x="410" y="966"/>
      <point x="383" y="1155"/>
      <point x="383" y="1343" type="curve" smooth="yes"/>
      <point x="383" y="1361"/>
      <point x="402" y="1374"/>
      <point x="418" y="1374" type="curve" smooth="yes"/>
      <point x="424" y="1374"/>
      <point x="447" y="1364"/>
      <point x="455" y="1362" type="curve"/>
      <point x="455" y="1043"/>
      <point x="481" y="725"/>
      <point x="481" y="406" type="curve" smooth="yes"/>
      <point x="481" y="271"/>
      <point x="484" y="135"/>
      <point x="494" y="0" type="curve"/>
      <point x="481" y="-23" type="line"/>
      <point x="479" y="-5"/>
      <point x="432" y="-2"/>
    </contour>
    <contour>
      <point x="352" y="739" type="line"/>
      <point x="356" y="735" type="line"/>
      <point x="352" y="735" type="line"/>
    </contour>
  </outline>
</glyph>
<glyph name="o" format="1">
  <advance width="673"/>
  <unicode hex="006F"/>
  <outline>
    <contour>
      <point x="334" y="-39" type="curve" smooth="yes"/>
      <point x="98" y="-39"/>
      <point x="94" y="527"/>
      <point x="94" y="715" type="curve" smooth="yes"/>
      <point x="94" y="793"/>
      <point x="98" y="1376"/>
      <point x="225" y="1376" type="curve" smooth="yes"/>
      <point x="250" y="1376"/>
      <point x="252" y="1358"/>
      <point x="270" y="1352" type="curve" smooth="yes"/>
      <point x="393" y="1307"/>
      <point x="418" y="1354"/>
      <point x="477" y="1243" type="curve"/>
      <point x="545" y="1128"/>
      <point x="563" y="932"/>
      <point x="563" y="801" type="curve"/>
      <point x="559" y="791" type="line"/>
      <point x="559" y="709"/>
      <point x="563" y="629"/>
      <point x="563" y="547" type="curve" smooth="yes"/>
      <point x="563" y="381"/>
      <point x="551" y="-39"/>
    </contour>
    <contour>
      <point x="162" y="555" type="curve" smooth="yes"/>
      <point x="162" y="475"/>
      <point x="181" y="20"/>
      <point x="326" y="20" type="curve" smooth="yes"/>
      <point x="492" y="20"/>
      <point x="500" y="436"/>
      <point x="500" y="563" type="curve" smooth="yes"/>
      <point x="500" y="725"/>
      <point x="477" y="885"/>
      <point x="477" y="1047" type="curve"/>
      <point x="469" y="1063" type="line"/>
      <point x="473" y="1073" type="line"/>
      <point x="473" y="1190"/>
      <point x="399" y="1294"/>
      <point x="301" y="1294" type="curve" smooth="yes"/>
      <point x="215" y="1294" type="line" smooth="yes"/>
      <point x="190" y="1294"/>
      <point x="180" y="966"/>
      <point x="168" y="909" type="curve"/>
      <point x="168" y="846"/>
      <point x="158" y="780"/>
      <point x="158" y="717" type="curve" smooth="yes"/>
      <point x="158" y="664"/>
      <point x="162" y="608"/>
    </contour>
  </outline>
</glyph>
<glyph name="q" format="1">
  <advance width="688"/>
  <unicode hex="0071"/>
  <outline>
    <contour>
      <point x="385" y="-401" type="curve"/>
      <point x="385" y="-288"/>
      <point x="358" y="-179"/>
      <point x="338" y="-68" type="curve"/>
      <point x="201" y="-41"/>
      <point x="137" y="8"/>
      <point x="117" y="227" type="curve"/>
      <point x="101" y="387"/>
      <point x="94" y="547"/>
      <point x="94" y="707" type="curve" smooth="yes"/>
      <point x="94" y="716" type="line" smooth="yes"/>
      <point x="94" y="870"/>
      <point x="96" y="1356"/>
      <point x="297" y="1368" type="curve"/>
      <point x="326" y="1356"/>
      <point x="356" y="1353"/>
      <point x="385" y="1341" type="curve"/>
      <point x="569" y="1255"/>
      <point x="578" y="991"/>
      <point x="578" y="817" type="curve" smooth="yes"/>
      <point x="578" y="721" type="line" smooth="yes"/>
      <point x="578" y="586"/>
      <point x="543" y="29"/>
      <point x="434" y="-39" type="curve" smooth="yes"/>
      <point x="422" y="-47"/>
      <point x="395" y="-52"/>
      <point x="395" y="-70" type="curve" smooth="yes"/>
      <point x="395" y="-168"/>
      <point x="424" y="-269"/>
      <point x="444" y="-365" type="curve"/>
      <point x="471" y="-392"/>
      <point x="547" y="-359"/>
      <point x="547" y="-408" type="curve" smooth="yes"/>
      <point x="547" y="-424"/>
      <point x="536" y="-434"/>
      <point x="520" y="-434" type="curve" smooth="yes"/>
      <point x="487" y="-434"/>
      <point x="408" y="-426"/>
    </contour>
    <contour>
      <point x="154" y="664" type="curve" smooth="yes"/>
      <point x="154" y="575" type="line" smooth="yes"/>
      <point x="154" y="374"/>
      <point x="163" y="-14"/>
      <point x="313" y="-14" type="curve" smooth="yes"/>
      <point x="333" y="-14"/>
      <point x="353" y="-2"/>
      <point x="373" y="-2" type="curve" smooth="yes"/>
      <point x="463" y="-2"/>
      <point x="516" y="436"/>
      <point x="516" y="514" type="curve" smooth="yes"/>
      <point x="516" y="872" type="line" smooth="yes"/>
      <point x="516" y="1024"/>
      <point x="500" y="1315"/>
      <point x="291" y="1315" type="curve" smooth="yes"/>
      <point x="158" y="1315"/>
      <point x="147" y="802"/>
      <point x="147" y="702" type="curve" smooth="yes"/>
      <point x="147" y="690"/>
      <point x="154" y="676"/>
    </contour>
  </outline>
</glyph>
<glyph name="r" format="1">
  <advance width="550"/>
  <unicode hex="0072"/>
  <outline>
    <contour>
      <point x="412" y="-25" type="curve"/>
      <point x="334" y="61"/>
      <point x="276" y="709"/>
      <point x="213" y="709" type="curve" smooth="yes"/>
      <point x="205" y="709" type="line" smooth="yes"/>
      <point x="185" y="709"/>
      <point x="160" y="707"/>
      <point x="160" y="680" type="curve" smooth="yes"/>
      <point x="160" y="530"/>
      <point x="170" y="381"/>
      <point x="178" y="231" type="curve" smooth="yes"/>
      <point x="180" y="184"/>
      <point x="183" y="57"/>
      <point x="195" y="16" type="curve"/>
      <point x="180" y="-18" type="line"/>
      <point x="150" y="-18" type="line"/>
      <point x="135" y="-2" type="line"/>
      <point x="119" y="428"/>
      <point x="102" y="858"/>
      <point x="102" y="1288" type="curve" smooth="yes"/>
      <point x="102" y="1321"/>
      <point x="104" y="1366"/>
      <point x="147" y="1366" type="curve" smooth="yes"/>
      <point x="272" y="1366"/>
      <point x="377" y="1304"/>
      <point x="377" y="1167" type="curve" smooth="yes"/>
      <point x="377" y="1018" type="line" smooth="yes"/>
      <point x="377" y="922"/>
      <point x="270" y="751"/>
      <point x="270" y="741" type="curve" smooth="yes"/>
      <point x="270" y="733"/>
      <point x="422" y="103"/>
      <point x="432" y="78" type="curve" smooth="yes"/>
      <point x="442" y="51"/>
      <point x="465" y="23"/>
      <point x="465" y="-6" type="curve" smooth="yes"/>
      <point x="465" y="-20"/>
      <point x="458" y="-35"/>
      <point x="442" y="-35" type="curve" smooth="yes"/>
      <point x="438" y="-35"/>
      <point x="418" y="-27"/>
    </contour>
    <contour>
      <point x="168" y="764" type="curve"/>
      <point x="172" y="760" type="line"/>
      <point x="283" y="760"/>
      <point x="322" y="1016"/>
      <point x="322" y="1098" type="curve" smooth="yes"/>
      <point x="322" y="1196"/>
      <point x="311" y="1313"/>
      <point x="184" y="1313" type="curve" smooth="yes"/>
      <point x="166" y="1313"/>
      <point x="160" y="1272"/>
      <point x="160" y="1260" type="curve" smooth="yes"/>
      <point x="160" y="1094"/>
      <point x="168" y="930"/>
    </contour>
  </outline>
</glyph>
<glyph name="t" format="1">
  <advance width="544"/>
  <unicode hex="0074"/>
  <outline>
    <contour>
      <point x="303" y="29" type="line"/>
      <point x="303" y="78"/>
      <point x="299" y="129"/>
      <point x="299" y="178" type="curve" smooth="yes"/>
      <point x="299" y="203"/>
      <point x="303" y="225"/>
      <point x="303" y="250" type="curve" smooth="yes"/>
      <point x="303" y="266"/>
      <point x="301" y="283"/>
      <point x="295" y="299" type="curve"/>
      <point x="295" y="633"/>
      <point x="248" y="964"/>
      <point x="244" y="1298" type="curve"/>
      <point x="189" y="1298"/>
      <point x="82" y="1300"/>
      <point x="72" y="1337" type="curve"/>
      <point x="78" y="1353"/>
      <point x="95" y="1360"/>
      <point x="111" y="1360" type="curve" smooth="yes"/>
      <point x="205" y="1360"/>
      <point x="295" y="1341"/>
      <point x="389" y="1341" type="curve" smooth="yes"/>
      <point x="401" y="1341"/>
      <point x="414" y="1343"/>
      <point x="426" y="1343" type="curve" smooth="yes"/>
      <point x="444" y="1343"/>
      <point x="463" y="1340"/>
      <point x="463" y="1317" type="curve" smooth="yes"/>
      <point x="463" y="1297"/>
      <point x="436" y="1284"/>
      <point x="418" y="1284" type="curve" smooth="yes"/>
      <point x="381" y="1284"/>
      <point x="344" y="1298"/>
      <point x="307" y="1298" type="curve"/>
      <point x="297" y="1286" type="line"/>
      <point x="301" y="1278" type="line"/>
      <point x="297" y="1270"/>
      <point x="297" y="1261"/>
      <point x="297" y="1253" type="curve" smooth="yes"/>
      <point x="297" y="852"/>
      <point x="365" y="452"/>
      <point x="365" y="51" type="curve" smooth="yes"/>
      <point x="365" y="31"/>
      <point x="346" y="12"/>
      <point x="326" y="12" type="curve"/>
    </contour>
  </outline>
</glyph>
<glyph name="v" format="1">
  <advance width="714"/>
  <unicode hex="0076"/>
  <outline>
    <contour>
      <point x="313" y="-6" type="line"/>
      <point x="313" y="148"/>
      <point x="289" y="305"/>
      <point x="264" y="457" type="curve" smooth="yes"/>
      <point x="227" y="682"/>
      <point x="182" y="907"/>
      <point x="131" y="1130" type="curve" smooth="yes"/>
      <point x="123" y="1167"/>
      <point x="76" y="1321"/>
      <point x="76" y="1341" type="curve" smooth="yes"/>
      <point x="76" y="1351"/>
      <point x="92" y="1366"/>
      <point x="102" y="1366" type="curve" smooth="yes"/>
      <point x="151" y="1366"/>
      <point x="170" y="1194"/>
      <point x="180" y="1157" type="curve" smooth="yes"/>
      <point x="266" y="817"/>
      <point x="311" y="485"/>
      <point x="360" y="147" type="curve"/>
      <point x="397" y="270"/>
      <point x="416" y="420"/>
      <point x="430" y="553" type="curve"/>
      <point x="477" y="963"/>
      <point x="530" y="1110"/>
      <point x="575" y="1384" type="curve"/>
      <point x="602" y="1395" type="line"/>
      <point x="610" y="1393"/>
      <point x="625" y="1384"/>
      <point x="625" y="1374" type="curve" smooth="yes"/>
      <point x="625" y="1321"/>
      <point x="604" y="1251"/>
      <point x="594" y="1198" type="curve" smooth="yes"/>
      <point x="569" y="1075"/>
      <point x="534" y="952"/>
      <point x="516" y="829" type="curve"/>
      <point x="496" y="702"/>
      <point x="489" y="571"/>
      <point x="473" y="444" type="curve" smooth="yes"/>
      <point x="463" y="368"/>
      <point x="436" y="295"/>
      <point x="422" y="219" type="curve" smooth="yes"/>
      <point x="412" y="162"/>
      <point x="422" y="-25"/>
      <point x="336" y="-25" type="curve"/>
    </contour>
    <contour>
      <point x="358" y="141" type="line"/>
      <point x="356" y="137" type="line"/>
      <point x="358" y="133" type="line"/>
    </contour>
    <contour>
      <point x="301" y="1106" type="curve"/>
      <point x="301" y="1102" type="line"/>
      <point x="299" y="1102" type="line"/>
      <point x="299" y="1104"/>
      <point x="299" y="1106"/>
    </contour>
  </outline>
</glyph>
<glyph name="z" format="1">
  <advance width="538"/>
  <unicode hex="007A"/>
  <outline>
    <contour>
      <point x="84" y="27" type="curve" smooth="yes"/>
      <point x="84" y="68"/>
      <point x="140" y="264"/>
      <point x="154" y="317" type="curve" smooth="yes"/>
      <point x="183" y="426"/>
      <point x="200" y="536"/>
      <point x="227" y="645" type="curve" smooth="yes"/>
      <point x="276" y="844"/>
      <point x="387" y="1104"/>
      <point x="387" y="1303" type="curve"/>
      <point x="324" y="1303"/>
      <point x="258" y="1290"/>
      <point x="195" y="1290" type="curve" smooth="yes"/>
      <point x="179" y="1290"/>
      <point x="166" y="1307"/>
      <point x="166" y="1323" type="curve" smooth="yes"/>
      <point x="166" y="1350"/>
      <point x="319" y="1356"/>
      <point x="393" y="1356" type="curve" smooth="yes"/>
      <point x="418" y="1356"/>
      <point x="444" y="1354"/>
      <point x="444" y="1323" type="curve" smooth="yes"/>
      <point x="444" y="1196"/>
      <point x="344" y="987"/>
      <point x="344" y="915" type="curve"/>
      <point x="307" y="735"/>
      <point x="154" y="331"/>
      <point x="152" y="63" type="curve"/>
      <point x="172" y="59"/>
      <point x="191" y="59"/>
      <point x="211" y="59" type="curve" smooth="yes"/>
      <point x="240" y="59"/>
      <point x="268" y="66"/>
      <point x="297" y="66" type="curve" smooth="yes"/>
      <point x="315" y="66"/>
      <point x="356" y="66"/>
      <point x="356" y="39" type="curve" smooth="yes"/>
      <point x="356" y="14"/>
      <point x="327" y="12"/>
      <point x="309" y="12" type="curve" smooth="yes"/>
      <point x="268" y="12"/>
      <point x="229" y="18"/>
      <point x="188" y="18" type="curve" smooth="yes"/>
      <point x="147" y="18"/>
      <point x="135" y="-4"/>
      <point x="115" y="-4" type="curve" smooth="yes"/>
      <point x="95" y="-4"/>
      <point x="84" y="7"/>
    </contour>
  </outline>
</glyph>
<glyph name="asciitilde" format="1">
  <advance width="653"/>
  <unicode hex="007E"/>
  <outline>
    <contour>
      <point x="111" y="1055" type="curve" smooth="yes"/>
      <point x="111" y="1133"/>
      <point x="150" y="1200"/>
      <point x="236" y="1200" type="curve" smooth="yes"/>
      <point x="304" y="1200"/>
      <point x="355" y="1075"/>
      <point x="410" y="1075" type="curve" smooth="yes"/>
      <point x="416" y="1075"/>
      <point x="420" y="1075"/>
      <point x="426" y="1077" type="curve"/>
      <point x="440" y="1073" type="line"/>
      <point x="450" y="1100"/>
      <point x="487" y="1094"/>
      <point x="487" y="1149" type="curve" smooth="yes"/>
      <point x="487" y="1163"/>
      <point x="477" y="1174"/>
      <point x="475" y="1188" type="curve"/>
      <point x="479" y="1196"/>
      <point x="488" y="1200"/>
      <point x="496" y="1200" type="curve" smooth="yes"/>
      <point x="531" y="1200"/>
      <point x="543" y="1159"/>
      <point x="543" y="1130" type="curve" smooth="yes"/>
      <point x="543" y="1073"/>
      <point x="491" y="1022"/>
      <point x="434" y="1022" type="curve" smooth="yes"/>
      <point x="354" y="1022"/>
      <point x="299" y="1088"/>
      <point x="252" y="1143" type="curve"/>
      <point x="244" y="1149"/>
      <point x="236" y="1151"/>
      <point x="228" y="1151" type="curve" smooth="yes"/>
      <point x="196" y="1151"/>
      <point x="162" y="1115"/>
      <point x="162" y="1094" type="curve" smooth="yes"/>
      <point x="162" y="1080"/>
      <point x="172" y="1066"/>
      <point x="172" y="1051" type="curve"/>
      <point x="164" y="1040"/>
      <point x="145" y="1025"/>
      <point x="130" y="1025" type="curve" smooth="yes"/>
      <point x="119" y="1025"/>
      <point x="111" y="1032"/>
    </contour>
  </outline>
</glyph>
<glyph name="exclamdown" format="1">
  <advance width="329"/>
  <unicode hex="00A1"/>
  <outline>
    <contour>
      <point x="88" y="1483" type="curve"/>
      <point x="125" y="1557"/>
      <point x="152" y="1523"/>
      <point x="160" y="1548" type="curve"/>
      <point x="193" y="1546"/>
      <point x="211" y="1528"/>
      <point x="211" y="1495" type="curve" smooth="yes"/>
      <point x="211" y="1456"/>
      <point x="193" y="1419"/>
      <point x="150" y="1419" type="curve" smooth="yes"/>
      <point x="123" y="1419"/>
      <point x="88" y="1456"/>
    </contour>
    <contour>
      <point x="145" y="700" type="curve" smooth="yes"/>
      <point x="145" y="1192" type="line" smooth="yes"/>
      <point x="145" y="1194"/>
      <point x="147" y="1198"/>
      <point x="147" y="1200" type="curve"/>
      <point x="174" y="1200" type="line"/>
      <point x="168" y="1190" type="line"/>
      <point x="180" y="1161"/>
      <point x="184" y="1114"/>
      <point x="184" y="1069" type="curve" smooth="yes"/>
      <point x="184" y="1036"/>
      <point x="182" y="1004"/>
      <point x="182" y="979" type="curve" smooth="yes"/>
      <point x="182" y="651"/>
      <point x="225" y="328"/>
      <point x="225" y="0" type="curve" smooth="yes"/>
      <point x="225" y="-16"/>
      <point x="215" y="-27"/>
      <point x="199" y="-27" type="curve" smooth="yes"/>
      <point x="172" y="-27"/>
      <point x="135" y="0"/>
      <point x="135" y="29" type="curve" smooth="yes"/>
      <point x="135" y="135"/>
      <point x="150" y="239"/>
      <point x="150" y="350" type="curve" smooth="yes"/>
      <point x="150" y="467"/>
      <point x="145" y="583"/>
    </contour>
  </outline>
</glyph>
<glyph name="currency" format="1">
  <advance width="868"/>
  <unicode hex="00A4"/>
  <outline>
    <contour>
      <point x="686" y="258" type="curve"/>
      <point x="672" y="283"/>
      <point x="659" y="309"/>
      <point x="643" y="334" type="curve"/>
      <point x="580" y="264"/>
      <point x="491" y="231"/>
      <point x="399" y="231" type="curve" smooth="yes"/>
      <point x="331" y="231"/>
      <point x="262" y="277"/>
      <point x="219" y="326" type="curve"/>
      <point x="190" y="326"/>
      <point x="180" y="227"/>
      <point x="131" y="227" type="curve" smooth="yes"/>
      <point x="96" y="227"/>
      <point x="90" y="248"/>
      <point x="90" y="279" type="curve" smooth="yes"/>
      <point x="90" y="291"/>
      <point x="170" y="360"/>
      <point x="180" y="395" type="curve"/>
      <point x="145" y="452"/>
      <point x="145" y="526"/>
      <point x="145" y="592" type="curve" smooth="yes"/>
      <point x="145" y="688"/>
      <point x="158" y="1009"/>
      <point x="219" y="1075" type="curve"/>
      <point x="219" y="1116"/>
      <point x="121" y="1185"/>
      <point x="121" y="1212" type="curve" smooth="yes"/>
      <point x="121" y="1226"/>
      <point x="131" y="1235"/>
      <point x="145" y="1235" type="curve" smooth="yes"/>
      <point x="196" y="1235"/>
      <point x="219" y="1170"/>
      <point x="252" y="1141" type="curve"/>
      <point x="275" y="1159"/>
      <point x="363" y="1264"/>
      <point x="383" y="1264" type="curve" smooth="yes"/>
      <point x="471" y="1264"/>
      <point x="532" y="1239"/>
      <point x="604" y="1190" type="curve"/>
      <point x="637" y="1194"/>
      <point x="678" y="1329"/>
      <point x="733" y="1329" type="curve"/>
      <point x="762" y="1298" type="line"/>
      <point x="758" y="1263"/>
      <point x="668" y="1186"/>
      <point x="668" y="1143" type="curve" smooth="yes"/>
      <point x="668" y="1129"/>
      <point x="696" y="1050"/>
      <point x="702" y="1032" type="curve" smooth="yes"/>
      <point x="727" y="954"/>
      <point x="758" y="856"/>
      <point x="758" y="774" type="curve" smooth="yes"/>
      <point x="758" y="692"/>
      <point x="739" y="610"/>
      <point x="719" y="530" type="curve" smooth="yes"/>
      <point x="709" y="489"/>
      <point x="690" y="438"/>
      <point x="690" y="397" type="curve" smooth="yes"/>
      <point x="690" y="327"/>
      <point x="768" y="281"/>
      <point x="768" y="248" type="curve" smooth="yes"/>
      <point x="768" y="232"/>
      <point x="759" y="219"/>
      <point x="741" y="219" type="curve" smooth="yes"/>
      <point x="714" y="219"/>
      <point x="686" y="225"/>
    </contour>
    <contour>
      <point x="262" y="412" type="curve"/>
      <point x="262" y="316"/>
      <point x="354" y="283"/>
      <point x="436" y="283" type="curve" smooth="yes"/>
      <point x="647" y="283"/>
      <point x="686" y="624"/>
      <point x="686" y="780" type="curve" smooth="yes"/>
      <point x="686" y="839"/>
      <point x="661" y="1063"/>
      <point x="612" y="1094" type="curve"/>
      <point x="587" y="1094"/>
      <point x="573" y="1118"/>
      <point x="573" y="1141" type="curve"/>
      <point x="544" y="1182"/>
      <point x="477" y="1204"/>
      <point x="428" y="1204" type="curve" smooth="yes"/>
      <point x="391" y="1204"/>
      <point x="299" y="1131"/>
      <point x="295" y="1094" type="curve"/>
      <point x="313" y="1075" type="line"/>
      <point x="313" y="1009"/>
      <point x="280" y="1047"/>
      <point x="266" y="1024" type="curve"/>
      <point x="239" y="985"/>
      <point x="211" y="749"/>
      <point x="211" y="696" type="curve" smooth="yes"/>
      <point x="211" y="684"/>
      <point x="213" y="671"/>
      <point x="215" y="659" type="curve"/>
      <point x="209" y="634"/>
      <point x="209" y="611"/>
      <point x="209" y="586" type="curve" smooth="yes"/>
      <point x="209" y="525"/>
      <point x="213" y="457"/>
    </contour>
  </outline>
</glyph>
<glyph name="yen" format="1">
  <advance width="942"/>
  <unicode hex="00A5"/>
  <outline>
    <contour>
      <point x="424" y="41" type="curve"/>
      <point x="432" y="59"/>
      <point x="451" y="274"/>
      <point x="451" y="307" type="curve" smooth="yes"/>
      <point x="451" y="463"/>
      <point x="467" y="618"/>
      <point x="467" y="774" type="curve" smooth="yes"/>
      <point x="467" y="782"/>
      <point x="465" y="791"/>
      <point x="463" y="797" type="curve"/>
      <point x="377" y="797"/>
      <point x="293" y="792"/>
      <point x="207" y="786" type="curve"/>
      <point x="193" y="794"/>
      <point x="180" y="811"/>
      <point x="172" y="825" type="curve"/>
      <point x="180" y="852" type="line"/>
      <point x="278" y="852"/>
      <point x="375" y="854"/>
      <point x="473" y="860" type="curve"/>
      <point x="477" y="891"/>
      <point x="477" y="923"/>
      <point x="477" y="954" type="curve" smooth="yes"/>
      <point x="477" y="968"/>
      <point x="471" y="981"/>
      <point x="455" y="981" type="curve" smooth="yes"/>
      <point x="406" y="981"/>
      <point x="356" y="973"/>
      <point x="307" y="973" type="curve" smooth="yes"/>
      <point x="284" y="973"/>
      <point x="193" y="973"/>
      <point x="193" y="1010" type="curve"/>
      <point x="207" y="1032" type="line"/>
      <point x="262" y="1032"/>
      <point x="310" y="1030"/>
      <point x="367" y="1030" type="curve" smooth="yes"/>
      <point x="404" y="1030"/>
      <point x="467" y="1032"/>
      <point x="477" y="1044" type="curve"/>
      <point x="477" y="1083" type="line"/>
      <point x="418" y="1118"/>
      <point x="191" y="1620"/>
      <point x="74" y="1716" type="curve"/>
      <point x="74" y="1747" type="line"/>
      <point x="80" y="1749"/>
      <point x="94" y="1755"/>
      <point x="100" y="1755" type="curve" smooth="yes"/>
      <point x="147" y="1755"/>
      <point x="274" y="1542"/>
      <point x="305" y="1497" type="curve"/>
      <point x="307" y="1472"/>
      <point x="375" y="1381"/>
      <point x="391" y="1352" type="curve" smooth="yes"/>
      <point x="407" y="1323"/>
      <point x="483" y="1173"/>
      <point x="508" y="1171" type="curve"/>
      <point x="531" y="1216"/>
      <point x="545" y="1264"/>
      <point x="559" y="1311" type="curve" smooth="yes"/>
      <point x="584" y="1391"/>
      <point x="688" y="1753"/>
      <point x="721" y="1794" type="curve" smooth="yes"/>
      <point x="731" y="1806"/>
      <point x="738" y="1810"/>
      <point x="754" y="1810" type="curve" smooth="yes"/>
      <point x="772" y="1810"/>
      <point x="788" y="1798"/>
      <point x="788" y="1780" type="curve"/>
      <point x="714" y="1608"/>
      <point x="680" y="1421"/>
      <point x="614" y="1245" type="curve"/>
      <point x="614" y="1173"/>
      <point x="551" y="1110"/>
      <point x="549" y="1047" type="curve"/>
      <point x="565" y="1039"/>
      <point x="582" y="1034"/>
      <point x="600" y="1034" type="curve" smooth="yes"/>
      <point x="674" y="1034"/>
      <point x="747" y="1044"/>
      <point x="821" y="1044" type="curve" smooth="yes"/>
      <point x="835" y="1044"/>
      <point x="852" y="1011"/>
      <point x="858" y="1001" type="curve"/>
      <point x="856" y="976"/>
      <point x="747" y="975"/>
      <point x="713" y="975" type="curve" smooth="yes"/>
      <point x="707" y="975" type="line"/>
      <point x="549" y="975" type="line"/>
      <point x="549" y="938"/>
      <point x="545" y="901"/>
      <point x="545" y="864" type="curve"/>
      <point x="772" y="864" type="line" smooth="yes"/>
      <point x="784" y="864"/>
      <point x="799" y="866"/>
      <point x="811" y="866" type="curve" smooth="yes"/>
      <point x="834" y="866"/>
      <point x="854" y="860"/>
      <point x="854" y="821" type="curve" smooth="yes"/>
      <point x="854" y="805"/>
      <point x="831" y="791"/>
      <point x="817" y="791" type="curve" smooth="yes"/>
      <point x="809" y="791" type="line"/>
      <point x="813" y="793" type="line"/>
      <point x="803" y="795"/>
      <point x="788" y="801"/>
      <point x="776" y="801" type="curve" smooth="yes"/>
      <point x="549" y="801" type="line"/>
      <point x="541" y="797" type="line"/>
      <point x="541" y="578"/>
      <point x="510" y="362"/>
      <point x="510" y="143" type="curve" smooth="yes"/>
      <point x="510" y="125"/>
      <point x="512" y="106"/>
      <point x="512" y="90" type="curve" smooth="yes"/>
      <point x="512" y="57"/>
      <point x="506" y="16"/>
      <point x="465" y="16" type="curve" smooth="yes"/>
      <point x="449" y="16"/>
      <point x="424" y="18"/>
    </contour>
  </outline>
</glyph>
<glyph name="brokenbar" format="1">
  <advance width="514"/>
  <unicode hex="00A6"/>
  <outline>
    <contour>
      <point x="221" y="948" type="line"/>
      <point x="215" y="879" type="line"/>
      <point x="215" y="859"/>
      <point x="205" y="858"/>
      <point x="195" y="858" type="curve" smooth="yes"/>
      <point x="170" y="858"/>
      <point x="170" y="862"/>
      <point x="170" y="874" type="curve" smooth="yes"/>
      <point x="170" y="1026"/>
      <point x="180" y="1163"/>
      <point x="180" y="1315" type="curve" smooth="yes"/>
      <point x="180" y="1350"/>
      <point x="184" y="1475"/>
      <point x="184" y="1487" type="curve" smooth="yes"/>
      <point x="184" y="1514"/>
      <point x="184" y="1552"/>
      <point x="225" y="1552" type="curve" smooth="yes"/>
      <point x="235" y="1552"/>
      <point x="238" y="1542"/>
      <point x="238" y="1530" type="curve" smooth="yes"/>
      <point x="238" y="1458"/>
      <point x="227" y="1243"/>
      <point x="227" y="1214" type="curve" smooth="yes"/>
      <point x="227" y="1183"/>
      <point x="223" y="1017"/>
      <point x="221" y="997" type="curve"/>
    </contour>
    <contour>
      <point x="197" y="43" type="line"/>
      <point x="190" y="-27" type="line"/>
      <point x="190" y="-47"/>
      <point x="180" y="-47"/>
      <point x="170" y="-47" type="curve" smooth="yes"/>
      <point x="145" y="-47"/>
      <point x="145" y="-43"/>
      <point x="145" y="-31" type="curve" smooth="yes"/>
      <point x="145" y="108"/>
      <point x="156" y="230"/>
      <point x="156" y="369" type="curve" smooth="yes"/>
      <point x="156" y="408"/>
      <point x="160" y="547"/>
      <point x="160" y="561" type="curve" smooth="yes"/>
      <point x="160" y="588"/>
      <point x="160" y="627"/>
      <point x="201" y="627" type="curve" smooth="yes"/>
      <point x="211" y="627"/>
      <point x="213" y="627"/>
      <point x="213" y="604" type="curve" smooth="yes"/>
      <point x="213" y="528"/>
      <point x="203" y="299"/>
      <point x="203" y="268" type="curve" smooth="yes"/>
      <point x="203" y="241"/>
      <point x="199" y="108"/>
      <point x="197" y="92" type="curve"/>
    </contour>
  </outline>
</glyph>
<glyph name="copyright" format="1">
  <advance width="1157"/>
  <unicode hex="00A9"/>
  <outline>
    <contour>
      <point x="98" y="924" type="curve" smooth="yes"/>
      <point x="98" y="1190"/>
      <point x="149" y="1788"/>
      <point x="516" y="1788" type="curve" smooth="yes"/>
      <point x="956" y="1788"/>
      <point x="1065" y="1086"/>
      <point x="1065" y="756" type="curve" smooth="yes"/>
      <point x="1065" y="416"/>
      <point x="991" y="2"/>
      <point x="565" y="2" type="curve" smooth="yes"/>
      <point x="133" y="2"/>
      <point x="129" y="324"/>
      <point x="111" y="662" type="curve" smooth="yes"/>
      <point x="107" y="750"/>
      <point x="98" y="836"/>
    </contour>
    <contour>
      <point x="170" y="940" type="curve" smooth="yes"/>
      <point x="170" y="825"/>
      <point x="182" y="709"/>
      <point x="188" y="594" type="curve" smooth="yes"/>
      <point x="202" y="350"/>
      <point x="220" y="57"/>
      <point x="539" y="57" type="curve" smooth="yes"/>
      <point x="811" y="57"/>
      <point x="920" y="221"/>
      <point x="977" y="465" type="curve"/>
      <point x="975" y="469"/>
      <point x="975" y="471"/>
      <point x="975" y="475" type="curve" smooth="yes"/>
      <point x="975" y="514"/>
      <point x="997" y="551"/>
      <point x="997" y="588" type="curve" smooth="yes"/>
      <point x="997" y="893" type="line" smooth="yes"/>
      <point x="997" y="971"/>
      <point x="970" y="1048"/>
      <point x="958" y="1124" type="curve" smooth="yes"/>
      <point x="925" y="1329"/>
      <point x="850" y="1554"/>
      <point x="672" y="1677" type="curve" smooth="yes"/>
      <point x="633" y="1704"/>
      <point x="590" y="1737"/>
      <point x="541" y="1737" type="curve" smooth="yes"/>
      <point x="213" y="1737"/>
      <point x="170" y="1176"/>
    </contour>
    <contour>
      <point x="428" y="311" type="curve"/>
      <point x="315" y="452"/>
      <point x="311" y="621"/>
      <point x="311" y="793" type="curve" smooth="yes"/>
      <point x="311" y="801" type="line" smooth="yes"/>
      <point x="311" y="986"/>
      <point x="313" y="1477"/>
      <point x="571" y="1477" type="curve" smooth="yes"/>
      <point x="596" y="1477"/>
      <point x="624" y="1474"/>
      <point x="647" y="1466" type="curve" smooth="yes"/>
      <point x="682" y="1454"/>
      <point x="788" y="1313"/>
      <point x="788" y="1276" type="curve" smooth="yes"/>
      <point x="788" y="1260"/>
      <point x="778" y="1247"/>
      <point x="762" y="1247" type="curve" smooth="yes"/>
      <point x="699" y="1247"/>
      <point x="691" y="1411"/>
      <point x="580" y="1411" type="curve" smooth="yes"/>
      <point x="396" y="1411"/>
      <point x="405" y="1043"/>
      <point x="389" y="918" type="curve"/>
      <point x="393" y="909" type="line"/>
      <point x="385" y="882"/>
      <point x="385" y="852"/>
      <point x="385" y="823" type="curve" smooth="yes"/>
      <point x="385" y="786" type="line" smooth="yes"/>
      <point x="385" y="664"/>
      <point x="388" y="485"/>
      <point x="455" y="397" type="curve"/>
      <point x="455" y="391" type="line"/>
      <point x="488" y="354"/>
      <point x="526" y="309"/>
      <point x="596" y="309" type="curve" smooth="yes"/>
      <point x="713" y="309"/>
      <point x="745" y="418"/>
      <point x="778" y="418" type="curve" smooth="yes"/>
      <point x="803" y="418"/>
      <point x="809" y="393"/>
      <point x="809" y="373" type="curve" smooth="yes"/>
      <point x="809" y="305"/>
      <point x="663" y="250"/>
      <point x="606" y="250" type="curve" smooth="yes"/>
      <point x="532" y="250"/>
      <point x="491" y="282"/>
    </contour>
  </outline>
</glyph>
<glyph name="uni00AD" format="1">
  <advance width="620"/>
  <unicode hex="00AD"/>
  <outline>
    <contour>
      <point x="508" y="739" type="curve" smooth="yes"/>
      <point x="508" y="729"/>
      <point x="248" y="721"/>
      <point x="156" y="721" type="curve" smooth="yes"/>
      <point x="138" y="721"/>
      <point x="113" y="733"/>
      <point x="113" y="756" type="curve" smooth="yes"/>
      <point x="113" y="766"/>
      <point x="379" y="774"/>
      <point x="463" y="774" type="curve" smooth="yes"/>
      <point x="481" y="774"/>
      <point x="508" y="759"/>
    </contour>
  </outline>
</glyph>
<glyph name="registered" format="1">
  <advance width="1161"/>
  <unicode hex="00AE"/>
  <outline>
    <contour>
      <point x="102" y="715" type="curve" smooth="yes"/>
      <point x="102" y="805"/>
      <point x="104" y="895"/>
      <point x="104" y="985" type="curve" smooth="yes"/>
      <point x="104" y="1323"/>
      <point x="147" y="1915"/>
      <point x="606" y="1915" type="curve" smooth="yes"/>
      <point x="721" y="1915"/>
      <point x="838" y="1825"/>
      <point x="901" y="1735" type="curve"/>
      <point x="950" y="1719"/>
      <point x="936" y="1663"/>
      <point x="969" y="1632" type="curve"/>
      <point x="969" y="1585"/>
      <point x="989" y="1485"/>
      <point x="997" y="1438" type="curve" smooth="yes"/>
      <point x="1022" y="1270"/>
      <point x="1065" y="1086"/>
      <point x="1065" y="920" type="curve" smooth="yes"/>
      <point x="1065" y="854" type="line" smooth="yes"/>
      <point x="1065" y="637"/>
      <point x="1065" y="146"/>
      <point x="909" y="-12" type="curve" smooth="yes"/>
      <point x="823" y="-100"/>
      <point x="741" y="-166"/>
      <point x="610" y="-166" type="curve" smooth="yes"/>
      <point x="133" y="-166"/>
      <point x="102" y="357"/>
    </contour>
    <contour>
      <point x="446" y="-84" type="curve"/>
      <point x="466" y="-92"/>
      <point x="498" y="-98"/>
      <point x="514" y="-98" type="curve"/>
      <point x="532" y="-106" type="line"/>
      <point x="972" y="-106"/>
      <point x="997" y="377"/>
      <point x="997" y="707" type="curve" smooth="yes"/>
      <point x="997" y="988"/>
      <point x="978" y="1350"/>
      <point x="874" y="1651" type="curve"/>
      <point x="889" y="1667" type="line"/>
      <point x="879" y="1692"/>
      <point x="858" y="1721"/>
      <point x="831" y="1731" type="curve"/>
      <point x="774" y="1790"/>
      <point x="709" y="1855"/>
      <point x="621" y="1855" type="curve" smooth="yes"/>
      <point x="234" y="1855"/>
      <point x="172" y="1333"/>
      <point x="172" y="1042" type="curve" smooth="yes"/>
      <point x="172" y="901"/>
      <point x="186" y="757"/>
      <point x="186" y="616" type="curve" smooth="yes"/>
      <point x="186" y="432"/>
      <point x="200" y="164"/>
      <point x="317" y="12" type="curve" smooth="yes"/>
      <point x="364" y="-49"/>
      <point x="409" y="-47"/>
    </contour>
    <contour>
      <point x="471" y="168" type="curve" smooth="yes"/>
      <point x="446" y="168"/>
      <point x="422" y="182"/>
      <point x="422" y="209" type="curve" smooth="yes"/>
      <point x="422" y="297"/>
      <point x="422" y="385"/>
      <point x="414" y="473" type="curve" smooth="yes"/>
      <point x="408" y="541"/>
      <point x="387" y="608"/>
      <point x="387" y="676" type="curve" smooth="yes"/>
      <point x="387" y="1075" type="line" smooth="yes"/>
      <point x="387" y="1202"/>
      <point x="362" y="1321"/>
      <point x="362" y="1454" type="curve" smooth="yes"/>
      <point x="362" y="1593"/>
      <point x="424" y="1612"/>
      <point x="555" y="1612" type="curve" smooth="yes"/>
      <point x="748" y="1612"/>
      <point x="768" y="1420"/>
      <point x="768" y="1270" type="curve" smooth="yes"/>
      <point x="768" y="1022"/>
      <point x="627" y="1032"/>
      <point x="627" y="969" type="curve" smooth="yes"/>
      <point x="627" y="930"/>
      <point x="811" y="291"/>
      <point x="815" y="291" type="curve"/>
      <point x="815" y="289" type="line"/>
      <point x="819" y="275"/>
      <point x="846" y="207"/>
      <point x="846" y="199" type="curve" smooth="yes"/>
      <point x="846" y="187"/>
      <point x="817" y="172"/>
      <point x="807" y="168" type="curve"/>
      <point x="735" y="168"/>
      <point x="684" y="484"/>
      <point x="666" y="545" type="curve"/>
      <point x="627" y="668"/>
      <point x="576" y="940"/>
      <point x="553" y="940" type="curve" smooth="yes"/>
      <point x="520" y="940"/>
      <point x="502" y="913"/>
      <point x="465" y="913" type="curve"/>
      <point x="463" y="874"/>
      <point x="459" y="836"/>
      <point x="459" y="797" type="curve" smooth="yes"/>
      <point x="459" y="600"/>
      <point x="504" y="408"/>
      <point x="504" y="211" type="curve" smooth="yes"/>
      <point x="504" y="186"/>
      <point x="500" y="168"/>
    </contour>
    <contour>
      <point x="438" y="1415" type="curve" smooth="yes"/>
      <point x="438" y="1335"/>
      <point x="442" y="975"/>
      <point x="473" y="975" type="curve" smooth="yes"/>
      <point x="520" y="975"/>
      <point x="658" y="1092"/>
      <point x="674" y="1137" type="curve"/>
      <point x="688" y="1180"/>
      <point x="692" y="1227"/>
      <point x="692" y="1272" type="curve" smooth="yes"/>
      <point x="692" y="1364"/>
      <point x="692" y="1548"/>
      <point x="561" y="1548" type="curve" smooth="yes"/>
      <point x="450" y="1548"/>
      <point x="438" y="1519"/>
    </contour>
  </outline>
</glyph>
<glyph name="macron" format="1">
  <advance width="620"/>
  <unicode hex="00AF"/>
  <outline>
    <contour>
      <point x="508" y="719" type="curve"/>
      <point x="506" y="705"/>
      <point x="449" y="702"/>
      <point x="377" y="702" type="curve" smooth="yes"/>
      <point x="262" y="702" type="line" smooth="yes"/>
      <point x="180" y="702"/>
      <point x="113" y="702"/>
      <point x="113" y="735" type="curve"/>
      <point x="115" y="749"/>
      <point x="172" y="752"/>
      <point x="244" y="752" type="curve" smooth="yes"/>
      <point x="360" y="752" type="line" smooth="yes"/>
      <point x="444" y="752"/>
      <point x="508" y="752"/>
    </contour>
  </outline>
</glyph>
<glyph name="cedilla" format="1">
  <advance width="468"/>
  <unicode hex="00B8"/>
  <outline>
    <contour>
      <point x="250" y="-190" type="curve"/>
      <point x="232" y="-190"/>
      <point x="213" y="-197"/>
      <point x="195" y="-197" type="curve" smooth="yes"/>
      <point x="168" y="-197"/>
      <point x="151" y="-176"/>
      <point x="139" y="-156" type="curve"/>
      <point x="155" y="-119"/>
      <point x="156" y="-80"/>
      <point x="156" y="-39" type="curve" smooth="yes"/>
      <point x="156" y="-16" type="line"/>
      <point x="215" y="-8" type="line"/>
      <point x="209" y="-43"/>
      <point x="207" y="-78"/>
      <point x="207" y="-111" type="curve"/>
      <point x="324" y="-119"/>
      <point x="356" y="-217"/>
      <point x="356" y="-317" type="curve" smooth="yes"/>
      <point x="356" y="-372"/>
      <point x="291" y="-479"/>
      <point x="201" y="-479" type="curve" smooth="yes"/>
      <point x="170" y="-479"/>
      <point x="113" y="-463"/>
      <point x="113" y="-424" type="curve" smooth="yes"/>
      <point x="113" y="-410"/>
      <point x="119" y="-403"/>
      <point x="135" y="-403" type="curve" smooth="yes"/>
      <point x="160" y="-403"/>
      <point x="176" y="-424"/>
      <point x="201" y="-424" type="curve" smooth="yes"/>
      <point x="252" y="-424"/>
      <point x="281" y="-348"/>
      <point x="281" y="-281" type="curve" smooth="yes"/>
      <point x="281" y="-242"/>
      <point x="271" y="-206"/>
    </contour>
  </outline>
</glyph>
<glyph name="onequarter" format="1">
  <advance width="1691"/>
  <unicode hex="00BC"/>
  <outline>
    <contour>
      <point x="197" y="37" type="curve"/>
      <point x="207" y="57" type="line"/>
      <point x="225" y="57"/>
      <point x="244" y="55"/>
      <point x="262" y="55" type="curve" smooth="yes"/>
      <point x="301" y="55"/>
      <point x="313" y="72"/>
      <point x="313" y="111" type="curve" smooth="yes"/>
      <point x="313" y="502"/>
      <point x="279" y="893"/>
      <point x="254" y="1284" type="curve"/>
      <point x="254" y="1307"/>
      <point x="256" y="1329"/>
      <point x="256" y="1354" type="curve" smooth="yes"/>
      <point x="256" y="1420"/>
      <point x="244" y="1483"/>
      <point x="162" y="1483" type="curve" smooth="yes"/>
      <point x="146" y="1483"/>
      <point x="131" y="1479"/>
      <point x="115" y="1479" type="curve" smooth="yes"/>
      <point x="101" y="1479"/>
      <point x="80" y="1481"/>
      <point x="80" y="1501" type="curve" smooth="yes"/>
      <point x="80" y="1530"/>
      <point x="233" y="1530"/>
      <point x="260" y="1530" type="curve" smooth="yes"/>
      <point x="278" y="1530"/>
      <point x="293" y="1515"/>
      <point x="293" y="1497" type="curve"/>
      <point x="297" y="1497" type="line"/>
      <point x="293" y="1477"/>
      <point x="291" y="1454"/>
      <point x="291" y="1434" type="curve" smooth="yes"/>
      <point x="291" y="1305"/>
      <point x="322" y="1176"/>
      <point x="322" y="1047" type="curve" smooth="yes"/>
      <point x="322" y="818"/>
      <point x="356" y="589"/>
      <point x="356" y="360" type="curve" smooth="yes"/>
      <point x="356" y="352"/>
      <point x="354" y="342"/>
      <point x="352" y="334" type="curve"/>
      <point x="360" y="303"/>
      <point x="365" y="143"/>
      <point x="365" y="102" type="curve" smooth="yes"/>
      <point x="365" y="92"/>
      <point x="362" y="82"/>
      <point x="362" y="72" type="curve"/>
      <point x="371" y="66" type="line"/>
      <point x="402" y="66"/>
      <point x="432" y="72"/>
      <point x="463" y="72" type="curve" smooth="yes"/>
      <point x="481" y="72"/>
      <point x="526" y="72"/>
      <point x="526" y="43" type="curve" smooth="yes"/>
      <point x="526" y="18"/>
      <point x="499" y="14"/>
      <point x="481" y="14" type="curve" smooth="yes"/>
      <point x="397" y="14"/>
      <point x="313" y="6"/>
      <point x="229" y="6" type="curve" smooth="yes"/>
      <point x="211" y="6"/>
      <point x="197" y="19"/>
    </contour>
    <contour>
      <point x="1085" y="1505" type="curve" smooth="yes"/>
      <point x="1085" y="1489"/>
      <point x="1048" y="1337"/>
      <point x="1044" y="1317" type="curve" smooth="yes"/>
      <point x="970" y="977"/>
      <point x="891" y="641"/>
      <point x="813" y="299" type="curve" smooth="yes"/>
      <point x="772" y="121" type="line" smooth="yes"/>
      <point x="762" y="78"/>
      <point x="756" y="-2"/>
      <point x="713" y="-6" type="curve"/>
      <point x="701" y="2"/>
      <point x="692" y="17"/>
      <point x="692" y="31" type="curve" smooth="yes"/>
      <point x="692" y="129"/>
      <point x="737" y="268"/>
      <point x="764" y="387" type="curve" smooth="yes"/>
      <point x="844" y="741"/>
      <point x="928" y="1096"/>
      <point x="1020" y="1448" type="curve" smooth="yes"/>
      <point x="1024" y="1460"/>
      <point x="1039" y="1532"/>
      <point x="1055" y="1532" type="curve" smooth="yes"/>
      <point x="1071" y="1532"/>
      <point x="1085" y="1523"/>
    </contour>
    <contour>
      <point x="1466" y="61" type="line"/>
      <point x="1464" y="66" type="line"/>
      <point x="1470" y="91"/>
      <point x="1473" y="114"/>
      <point x="1473" y="139" type="curve" smooth="yes"/>
      <point x="1473" y="209"/>
      <point x="1458" y="278"/>
      <point x="1458" y="348" type="curve" smooth="yes"/>
      <point x="1458" y="379"/>
      <point x="1462" y="409"/>
      <point x="1462" y="440" type="curve" smooth="yes"/>
      <point x="1462" y="460"/>
      <point x="1462" y="520"/>
      <point x="1442" y="530" type="curve"/>
      <point x="1401" y="530"/>
      <point x="1362" y="518"/>
      <point x="1321" y="518" type="curve" smooth="yes"/>
      <point x="1288" y="518"/>
      <point x="1291" y="523"/>
      <point x="1266" y="541" type="curve"/>
      <point x="1266" y="547" type="line" smooth="yes"/>
      <point x="1266" y="570"/>
      <point x="1272" y="592"/>
      <point x="1276" y="612" type="curve"/>
      <point x="1257" y="653" type="line"/>
      <point x="1257" y="688"/>
      <point x="1276" y="719"/>
      <point x="1276" y="754" type="curve" smooth="yes"/>
      <point x="1276" y="887"/>
      <point x="1296" y="1022"/>
      <point x="1296" y="1155" type="curve" smooth="yes"/>
      <point x="1296" y="1481" type="line" smooth="yes"/>
      <point x="1296" y="1497"/>
      <point x="1288" y="1516"/>
      <point x="1288" y="1532" type="curve" smooth="yes"/>
      <point x="1288" y="1548"/>
      <point x="1297" y="1559"/>
      <point x="1313" y="1559" type="curve" smooth="yes"/>
      <point x="1329" y="1559"/>
      <point x="1350" y="1550"/>
      <point x="1350" y="1530" type="curve" smooth="yes"/>
      <point x="1350" y="1475"/>
      <point x="1341" y="1421"/>
      <point x="1341" y="1366" type="curve" smooth="yes"/>
      <point x="1341" y="1343"/>
      <point x="1344" y="1319"/>
      <point x="1348" y="1296" type="curve"/>
      <point x="1343" y="1290" type="line"/>
      <point x="1345" y="1272"/>
      <point x="1348" y="1253"/>
      <point x="1348" y="1233" type="curve" smooth="yes"/>
      <point x="1348" y="1061"/>
      <point x="1323" y="889"/>
      <point x="1323" y="717" type="curve" smooth="yes"/>
      <point x="1323" y="697"/>
      <point x="1337" y="677"/>
      <point x="1337" y="657" type="curve" smooth="yes"/>
      <point x="1337" y="637"/>
      <point x="1323" y="622"/>
      <point x="1323" y="602" type="curve" smooth="yes"/>
      <point x="1323" y="588"/>
      <point x="1323" y="563"/>
      <point x="1343" y="563" type="curve" smooth="yes"/>
      <point x="1366" y="563"/>
      <point x="1428" y="572"/>
      <point x="1446" y="582" type="curve"/>
      <point x="1446" y="729"/>
      <point x="1438" y="877"/>
      <point x="1432" y="1024" type="curve" smooth="yes"/>
      <point x="1430" y="1079"/>
      <point x="1415" y="1133"/>
      <point x="1415" y="1188" type="curve" smooth="yes"/>
      <point x="1415" y="1206"/>
      <point x="1440" y="1212"/>
      <point x="1454" y="1212" type="curve"/>
      <point x="1473" y="1190" type="line"/>
      <point x="1473" y="1094"/>
      <point x="1485" y="997"/>
      <point x="1485" y="901" type="curve" smooth="yes"/>
      <point x="1485" y="860"/>
      <point x="1491" y="596"/>
      <point x="1505" y="582" type="curve"/>
      <point x="1530" y="582"/>
      <point x="1554" y="590"/>
      <point x="1581" y="590" type="curve" smooth="yes"/>
      <point x="1595" y="590"/>
      <point x="1620" y="587"/>
      <point x="1620" y="567" type="curve" smooth="yes"/>
      <point x="1620" y="514"/>
      <point x="1505" y="576"/>
      <point x="1505" y="498" type="curve" smooth="yes"/>
      <point x="1505" y="451"/>
      <point x="1514" y="177"/>
      <point x="1524" y="152" type="curve"/>
      <point x="1522" y="144"/>
      <point x="1522" y="131"/>
      <point x="1522" y="117" type="curve" smooth="yes"/>
      <point x="1522" y="99"/>
      <point x="1524" y="78"/>
      <point x="1530" y="68" type="curve"/>
      <point x="1524" y="43" type="line"/>
      <point x="1530" y="29" type="line"/>
      <point x="1530" y="0" type="line"/>
      <point x="1497" y="-25" type="line"/>
      <point x="1466" y="-12" type="line"/>
    </contour>
  </outline>
</glyph>
<glyph name="onehalf" format="1">
  <advance width="1736"/>
  <unicode hex="00BD"/>
  <outline>
    <contour>
      <point x="197" y="37" type="curve"/>
      <point x="207" y="57" type="line"/>
      <point x="225" y="57"/>
      <point x="244" y="55"/>
      <point x="262" y="55" type="curve" smooth="yes"/>
      <point x="301" y="55"/>
      <point x="313" y="72"/>
      <point x="313" y="111" type="curve" smooth="yes"/>
      <point x="313" y="502"/>
      <point x="279" y="893"/>
      <point x="254" y="1284" type="curve"/>
      <point x="254" y="1307"/>
      <point x="256" y="1329"/>
      <point x="256" y="1354" type="curve" smooth="yes"/>
      <point x="256" y="1420"/>
      <point x="244" y="1483"/>
      <point x="162" y="1483" type="curve" smooth="yes"/>
      <point x="146" y="1483"/>
      <point x="131" y="1479"/>
      <point x="115" y="1479" type="curve" smooth="yes"/>
      <point x="101" y="1479"/>
      <point x="80" y="1481"/>
      <point x="80" y="1501" type="curve" smooth="yes"/>
      <point x="80" y="1530"/>
      <point x="233" y="1530"/>
      <point x="260" y="1530" type="curve" smooth="yes"/>
      <point x="278" y="1530"/>
      <point x="293" y="1515"/>
      <point x="293" y="1497" type="curve"/>
      <point x="297" y="1497" type="line"/>
      <point x="293" y="1477"/>
      <point x="291" y="1454"/>
      <point x="291" y="1434" type="curve" smooth="yes"/>
      <point x="291" y="1305"/>
      <point x="322" y="1176"/>
      <point x="322" y="1047" type="curve" smooth="yes"/>
      <point x="322" y="818"/>
      <point x="356" y="589"/>
      <point x="356" y="360" type="curve" smooth="yes"/>
      <point x="356" y="352"/>
      <point x="354" y="342"/>
      <point x="352" y="334" type="curve"/>
      <point x="360" y="303"/>
      <point x="365" y="143"/>
      <point x="365" y="102" type="curve" smooth="yes"/>
      <point x="365" y="92"/>
      <point x="362" y="82"/>
      <point x="362" y="72" type="curve"/>
      <point x="371" y="66" type="line"/>
      <point x="402" y="66"/>
      <point x="432" y="72"/>
      <point x="463" y="72" type="curve" smooth="yes"/>
      <point x="481" y="72"/>
      <point x="526" y="72"/>
      <point x="526" y="43" type="curve" smooth="yes"/>
      <point x="526" y="18"/>
      <point x="499" y="14"/>
      <point x="481" y="14" type="curve" smooth="yes"/>
      <point x="397" y="14"/>
      <point x="313" y="6"/>
      <point x="229" y="6" type="curve" smooth="yes"/>
      <point x="211" y="6"/>
      <point x="197" y="19"/>
    </contour>
    <contour>
      <point x="1085" y="1505" type="curve" smooth="yes"/>
      <point x="1085" y="1489"/>
      <point x="1048" y="1337"/>
      <point x="1044" y="1317" type="curve" smooth="yes"/>
      <point x="970" y="977"/>
      <point x="891" y="641"/>
      <point x="813" y="299" type="curve" smooth="yes"/>
      <point x="772" y="121" type="line" smooth="yes"/>
      <point x="762" y="78"/>
      <point x="756" y="-2"/>
      <point x="713" y="-6" type="curve"/>
      <point x="701" y="2"/>
      <point x="692" y="17"/>
      <point x="692" y="31" type="curve" smooth="yes"/>
      <point x="692" y="129"/>
      <point x="737" y="268"/>
      <point x="764" y="387" type="curve" smooth="yes"/>
      <point x="844" y="741"/>
      <point x="928" y="1096"/>
      <point x="1020" y="1448" type="curve" smooth="yes"/>
      <point x="1024" y="1460"/>
      <point x="1039" y="1532"/>
      <point x="1055" y="1532" type="curve" smooth="yes"/>
      <point x="1071" y="1532"/>
      <point x="1085" y="1523"/>
    </contour>
    <contour>
      <point x="1243" y="25" type="curve"/>
      <point x="1302" y="99"/>
      <point x="1315" y="190"/>
      <point x="1354" y="274" type="curve" smooth="yes"/>
      <point x="1501" y="596"/>
      <point x="1587" y="893"/>
      <point x="1587" y="1249" type="curve" smooth="yes"/>
      <point x="1587" y="1335"/>
      <point x="1585" y="1544"/>
      <point x="1460" y="1544" type="curve"/>
      <point x="1373" y="1505"/>
      <point x="1408" y="1366"/>
      <point x="1360" y="1366" type="curve" smooth="yes"/>
      <point x="1333" y="1366"/>
      <point x="1333" y="1387"/>
      <point x="1333" y="1407" type="curve" smooth="yes"/>
      <point x="1333" y="1466"/>
      <point x="1368" y="1585"/>
      <point x="1442" y="1585" type="curve" smooth="yes"/>
      <point x="1563" y="1585"/>
      <point x="1632" y="1477"/>
      <point x="1636" y="1366" type="curve"/>
      <point x="1632" y="1362" type="line"/>
      <point x="1632" y="1313"/>
      <point x="1638" y="1261"/>
      <point x="1638" y="1212" type="curve" smooth="yes"/>
      <point x="1638" y="997"/>
      <point x="1571" y="617"/>
      <point x="1483" y="420" type="curve" smooth="yes"/>
      <point x="1452" y="350"/>
      <point x="1321" y="96"/>
      <point x="1319" y="41" type="curve"/>
      <point x="1335" y="39" type="line"/>
      <point x="1409" y="53"/>
      <point x="1499" y="57"/>
      <point x="1581" y="61" type="curve"/>
      <point x="1612" y="29" type="line"/>
      <point x="1593" y="2" type="line"/>
      <point x="1493" y="2"/>
      <point x="1394" y="-16"/>
      <point x="1294" y="-16" type="curve" smooth="yes"/>
      <point x="1269" y="-16"/>
      <point x="1243" y="-2"/>
    </contour>
  </outline>
</glyph>
<glyph name="Thorn" format="1">
  <advance width="540"/>
  <unicode hex="00DE"/>
  <outline>
    <contour>
      <point x="156" y="-12" type="curve" smooth="yes"/>
      <point x="131" y="-12"/>
      <point x="131" y="45"/>
      <point x="131" y="59" type="curve" smooth="yes"/>
      <point x="131" y="182"/>
      <point x="133" y="194"/>
      <point x="133" y="317" type="curve" smooth="yes"/>
      <point x="133" y="428"/>
      <point x="129" y="458"/>
      <point x="129" y="569" type="curve" smooth="yes"/>
      <point x="129" y="739"/>
      <point x="117" y="932"/>
      <point x="111" y="1100" type="curve" smooth="yes"/>
      <point x="107" y="1186"/>
      <point x="96" y="1276"/>
      <point x="96" y="1366" type="curve"/>
      <point x="94" y="1376"/>
      <point x="94" y="1385"/>
      <point x="94" y="1395" type="curve" smooth="yes"/>
      <point x="94" y="1415"/>
      <point x="97" y="1483"/>
      <point x="97" y="1515" type="curve" smooth="yes"/>
      <point x="97" y="1523"/>
      <point x="96" y="1528"/>
      <point x="96" y="1530" type="curve" smooth="yes"/>
      <point x="96" y="1540"/>
      <point x="103" y="1544"/>
      <point x="111" y="1546" type="curve"/>
      <point x="125" y="1546"/>
      <point x="145" y="1538"/>
      <point x="145" y="1540" type="curve"/>
      <point x="149" y="1485"/>
      <point x="150" y="1433"/>
      <point x="154" y="1378" type="curve"/>
      <point x="154" y="1376" type="line"/>
      <point x="353" y="1372"/>
      <point x="446" y="1173"/>
      <point x="446" y="997" type="curve" smooth="yes"/>
      <point x="446" y="878"/>
      <point x="389" y="674"/>
      <point x="293" y="598" type="curve"/>
      <point x="277" y="584"/>
      <point x="256" y="581"/>
      <point x="240" y="569" type="curve" smooth="yes"/>
      <point x="220" y="555"/>
      <point x="217" y="543"/>
      <point x="190" y="537" type="curve"/>
      <point x="190" y="312"/>
      <point x="201" y="276"/>
      <point x="201" y="51" type="curve" smooth="yes"/>
      <point x="201" y="18"/>
      <point x="197" y="-12"/>
    </contour>
    <contour>
      <point x="162" y="1317" type="line"/>
      <point x="162" y="1264" type="line" smooth="yes"/>
      <point x="164" y="1049"/>
      <point x="186" y="831"/>
      <point x="190" y="612" type="curve"/>
      <point x="221" y="614"/>
      <point x="236" y="639"/>
      <point x="256" y="659" type="curve" smooth="yes"/>
      <point x="354" y="757"/>
      <point x="389" y="864"/>
      <point x="389" y="993" type="curve" smooth="yes"/>
      <point x="389" y="1186"/>
      <point x="344" y="1213"/>
      <point x="199" y="1317" type="curve"/>
    </contour>
  </outline>
</glyph>
<glyph name="ae" format="1">
  <advance width="923"/>
  <unicode hex="00E6"/>
  <outline>
    <contour>
      <point x="489" y="14" type="line"/>
      <point x="501" y="82"/>
      <point x="506" y="159"/>
      <point x="506" y="229" type="curve" smooth="yes"/>
      <point x="506" y="354"/>
      <point x="496" y="477"/>
      <point x="496" y="600" type="curve"/>
      <point x="485" y="614" type="line"/>
      <point x="454" y="608"/>
      <point x="280" y="605"/>
      <point x="274" y="580" type="curve" smooth="yes"/>
      <point x="172" y="209" type="line" smooth="yes"/>
      <point x="162" y="174"/>
      <point x="137" y="2"/>
      <point x="100" y="2" type="curve" smooth="yes"/>
      <point x="90" y="2"/>
      <point x="84" y="19"/>
      <point x="84" y="27" type="curve" smooth="yes"/>
      <point x="86" y="121"/>
      <point x="141" y="336"/>
      <point x="166" y="432" type="curve"/>
      <point x="248" y="694"/>
      <point x="336" y="940"/>
      <point x="434" y="1196" type="curve"/>
      <point x="438" y="1208" type="line" smooth="yes"/>
      <point x="438" y="1210"/>
      <point x="440" y="1215"/>
      <point x="440" y="1217" type="curve" smooth="yes"/>
      <point x="454" y="1266"/>
      <point x="479" y="1348"/>
      <point x="528" y="1348" type="curve" smooth="yes"/>
      <point x="579" y="1348"/>
      <point x="633" y="1350"/>
      <point x="686" y="1350" type="curve" smooth="yes"/>
      <point x="706" y="1350"/>
      <point x="750" y="1346"/>
      <point x="750" y="1317" type="curve"/>
      <point x="737" y="1292" type="line"/>
      <point x="635" y="1292" type="line" smooth="yes"/>
      <point x="600" y="1292"/>
      <point x="568" y="1292"/>
      <point x="535" y="1288" type="curve"/>
      <point x="535" y="1188"/>
      <point x="541" y="1077"/>
      <point x="541" y="975" type="curve" smooth="yes"/>
      <point x="541" y="873"/>
      <point x="543" y="784"/>
      <point x="543" y="682" type="curve"/>
      <point x="553" y="670" type="line"/>
      <point x="608" y="690"/>
      <point x="660" y="690"/>
      <point x="715" y="690" type="curve"/>
      <point x="743" y="655" type="line"/>
      <point x="743" y="624"/>
      <point x="666" y="621"/>
      <point x="598" y="621" type="curve" smooth="yes"/>
      <point x="543" y="621" type="line"/>
      <point x="543" y="465"/>
      <point x="551" y="312"/>
      <point x="551" y="154" type="curve" smooth="yes"/>
      <point x="551" y="125"/>
      <point x="549" y="99"/>
      <point x="549" y="70" type="curve" smooth="yes"/>
      <point x="549" y="60"/>
      <point x="549" y="35"/>
      <point x="567" y="35" type="curve" smooth="yes"/>
      <point x="645" y="35"/>
      <point x="721" y="57"/>
      <point x="799" y="57" type="curve" smooth="yes"/>
      <point x="813" y="57"/>
      <point x="844" y="51"/>
      <point x="844" y="31" type="curve" smooth="yes"/>
      <point x="844" y="-18"/>
      <point x="600" y="2"/>
      <point x="565" y="-14" type="curve"/>
      <point x="559" y="-12"/>
      <point x="553" y="-12"/>
      <point x="549" y="-12" type="curve" smooth="yes"/>
      <point x="539" y="-12"/>
      <point x="532" y="-14"/>
      <point x="518" y="-14" type="curve"/>
    </contour>
    <contour>
      <point x="494" y="1237" type="curve"/>
      <point x="469" y="1210"/>
      <point x="295" y="692"/>
      <point x="289" y="643" type="curve"/>
      <point x="348" y="643"/>
      <point x="439" y="656"/>
      <point x="494" y="668" type="curve"/>
      <point x="494" y="948" type="line" smooth="yes"/>
      <point x="494" y="993"/>
      <point x="496" y="1040"/>
      <point x="496" y="1085" type="curve" smooth="yes"/>
      <point x="496" y="1163" type="line" smooth="yes"/>
      <point x="496" y="1188"/>
      <point x="496" y="1212"/>
    </contour>
  </outline>
</glyph>
<glyph name="eth" format="1">
  <advance width="516"/>
  <unicode hex="00F0"/>
  <outline>
    <contour>
      <point x="483" y="1313" type="curve" smooth="yes"/>
      <point x="483" y="1311"/>
      <point x="444" y="1302"/>
      <point x="395" y="1296" type="curve"/>
      <point x="428" y="1116"/>
      <point x="430" y="899"/>
      <point x="430" y="815" type="curve" smooth="yes"/>
      <point x="430" y="807" type="line" smooth="yes"/>
      <point x="430" y="660"/>
      <point x="426" y="514"/>
      <point x="420" y="369" type="curve"/>
      <point x="404" y="258"/>
      <point x="428" y="-29"/>
      <point x="260" y="-29" type="curve" smooth="yes"/>
      <point x="135" y="-29"/>
      <point x="119" y="70"/>
      <point x="119" y="170" type="curve" smooth="yes"/>
      <point x="119" y="334"/>
      <point x="121" y="913"/>
      <point x="332" y="913" type="curve" smooth="yes"/>
      <point x="346" y="913"/>
      <point x="365" y="905"/>
      <point x="377" y="897" type="curve"/>
      <point x="375" y="960"/>
      <point x="367" y="1141"/>
      <point x="344" y="1288" type="curve"/>
      <point x="287" y="1282"/>
      <point x="230" y="1276"/>
      <point x="197" y="1276" type="curve" smooth="yes"/>
      <point x="191" y="1276"/>
      <point x="186" y="1280"/>
      <point x="186" y="1284" type="curve" smooth="yes"/>
      <point x="186" y="1290"/>
      <point x="186" y="1313"/>
      <point x="209" y="1313" type="curve" smooth="yes"/>
      <point x="254" y="1313"/>
      <point x="297" y="1317"/>
      <point x="340" y="1323" type="curve"/>
      <point x="326" y="1407"/>
      <point x="306" y="1474"/>
      <point x="279" y="1497" type="curve" smooth="yes"/>
      <point x="261" y="1513"/>
      <point x="209" y="1521"/>
      <point x="209" y="1550" type="curve" smooth="yes"/>
      <point x="209" y="1560"/>
      <point x="225" y="1569"/>
      <point x="233" y="1569" type="curve" smooth="yes"/>
      <point x="315" y="1569"/>
      <point x="362" y="1462"/>
      <point x="391" y="1329" type="curve"/>
      <point x="418" y="1331"/>
      <point x="444" y="1333"/>
      <point x="473" y="1333" type="curve" smooth="yes"/>
      <point x="483" y="1333"/>
      <point x="485" y="1329"/>
      <point x="485" y="1323" type="curve" smooth="yes"/>
      <point x="485" y="1319"/>
      <point x="483" y="1313"/>
    </contour>
    <contour>
      <point x="377" y="727" type="curve" smooth="yes"/>
      <point x="377" y="844" type="line"/>
      <point x="377" y="844"/>
      <point x="356" y="860"/>
      <point x="315" y="868" type="curve"/>
      <point x="176" y="868"/>
      <point x="168" y="291"/>
      <point x="168" y="174" type="curve" smooth="yes"/>
      <point x="168" y="123"/>
      <point x="170" y="12"/>
      <point x="244" y="12" type="curve" smooth="yes"/>
      <point x="340" y="12"/>
      <point x="336" y="100"/>
      <point x="344" y="166" type="curve" smooth="yes"/>
      <point x="367" y="352"/>
      <point x="377" y="539"/>
    </contour>
  </outline>
</glyph>
<glyph name="oslash" format="1">
  <advance width="565"/>
  <unicode hex="00F8"/>
  <outline>
    <contour>
      <point x="102" y="-219" type="curve"/>
      <point x="114" y="-98"/>
      <point x="140" y="-17"/>
      <point x="152" y="104" type="curve"/>
      <point x="152" y="127"/>
      <point x="141" y="149"/>
      <point x="137" y="172" type="curve" smooth="yes"/>
      <point x="99" y="398"/>
      <point x="96" y="638"/>
      <point x="96" y="870" type="curve" smooth="yes"/>
      <point x="96" y="993" type="line" smooth="yes"/>
      <point x="96" y="1083"/>
      <point x="96" y="1382"/>
      <point x="233" y="1382" type="curve" smooth="yes"/>
      <point x="253" y="1382"/>
      <point x="273" y="1368"/>
      <point x="289" y="1360" type="curve"/>
      <point x="295" y="1364" type="line"/>
      <point x="309" y="1350" type="line"/>
      <point x="317" y="1383"/>
      <point x="336" y="1513"/>
      <point x="354" y="1591" type="curve"/>
      <point x="387" y="1591" type="line"/>
      <point x="387" y="1573" type="line" smooth="yes"/>
      <point x="387" y="1553"/>
      <point x="346" y="1334"/>
      <point x="346" y="1311" type="curve" smooth="yes"/>
      <point x="346" y="1291"/>
      <point x="363" y="1271"/>
      <point x="373" y="1255" type="curve"/>
      <point x="371" y="1251" type="line"/>
      <point x="375" y="1231"/>
      <point x="391" y="1214"/>
      <point x="399" y="1196" type="curve" smooth="yes"/>
      <point x="415" y="1161"/>
      <point x="422" y="1110"/>
      <point x="422" y="1071" type="curve"/>
      <point x="418" y="1069" type="line"/>
      <point x="418" y="973"/>
      <point x="444" y="876"/>
      <point x="444" y="780" type="curve" smooth="yes"/>
      <point x="444" y="770" type="line"/>
      <point x="449" y="764" type="line"/>
      <point x="449" y="645"/>
      <point x="455" y="529"/>
      <point x="455" y="410" type="curve" smooth="yes"/>
      <point x="455" y="281"/>
      <point x="452" y="-14"/>
      <point x="268" y="-14" type="curve" smooth="yes"/>
      <point x="235" y="-14"/>
      <point x="198" y="-6"/>
      <point x="178" y="23" type="curve"/>
      <point x="176" y="23" type="line"/>
      <point x="176" y="31"/>
      <point x="148" y="-248"/>
      <point x="121" y="-248" type="curve" smooth="yes"/>
      <point x="109" y="-248"/>
      <point x="102" y="-239"/>
    </contour>
    <contour>
      <point x="201" y="111" type="curve" smooth="yes"/>
      <point x="201" y="50"/>
      <point x="224" y="25"/>
      <point x="285" y="25" type="curve" smooth="yes"/>
      <point x="406" y="25"/>
      <point x="406" y="287"/>
      <point x="406" y="369" type="curve" smooth="yes"/>
      <point x="406" y="537"/>
      <point x="401" y="1096"/>
      <point x="338" y="1217" type="curve"/>
      <point x="281" y="881"/>
      <point x="238" y="285"/>
      <point x="215" y="201" type="curve" smooth="yes"/>
      <point x="207" y="170"/>
      <point x="201" y="142"/>
    </contour>
    <contour>
      <point x="152" y="647" type="curve"/>
      <point x="152" y="516"/>
      <point x="176" y="385"/>
      <point x="176" y="254" type="curve"/>
      <point x="201" y="404"/>
      <point x="260" y="969"/>
      <point x="272" y="1069" type="curve" smooth="yes"/>
      <point x="280" y="1139"/>
      <point x="295" y="1208"/>
      <point x="295" y="1280" type="curve" smooth="yes"/>
      <point x="295" y="1311"/>
      <point x="263" y="1331"/>
      <point x="236" y="1331" type="curve" smooth="yes"/>
      <point x="232" y="1331"/>
      <point x="211" y="1323"/>
      <point x="205" y="1321" type="curve"/>
      <point x="195" y="1323" type="line"/>
      <point x="140" y="1294"/>
      <point x="137" y="907"/>
      <point x="137" y="782" type="curve" smooth="yes"/>
      <point x="137" y="768" type="line" smooth="yes"/>
      <point x="137" y="731"/>
      <point x="138" y="683"/>
    </contour>
  </outline>
</glyph>
<glyph name="Hbar" format="1">
  <advance width="602"/>
  <unicode hex="0126"/>
  <outline>
    <contour>
      <point x="151" y="1207" type="curve"/>
      <point x="156" y="1124"/>
      <point x="162" y="1041"/>
      <point x="162" y="958" type="curve" smooth="yes"/>
      <point x="162" y="931"/>
      <point x="160" y="904"/>
      <point x="160" y="877" type="curve" smooth="yes"/>
      <point x="160" y="852"/>
      <point x="162" y="828"/>
      <point x="168" y="805" type="curve"/>
      <point x="248" y="805"/>
      <point x="328" y="821"/>
      <point x="408" y="821" type="curve"/>
      <point x="410" y="825" type="line"/>
      <point x="410" y="953"/>
      <point x="404" y="1083"/>
      <point x="399" y="1212" type="curve"/>
      <point x="328" y="1211"/>
      <point x="225" y="1208"/>
    </contour>
    <contour>
      <point x="481" y="1212" type="line" smooth="yes"/>
    </contour>
    <contour>
      <point x="455" y="-33" type="curve" smooth="yes"/>
      <point x="428" y="-33"/>
      <point x="426" y="-6"/>
      <point x="426" y="12" type="curve" smooth="yes"/>
      <point x="426" y="28"/>
      <point x="428" y="43"/>
      <point x="428" y="59" type="curve" smooth="yes"/>
      <point x="428" y="292"/>
      <point x="420" y="529"/>
      <point x="408" y="762" type="curve"/>
      <point x="404" y="762"/>
      <point x="399" y="760"/>
      <point x="395" y="760" type="curve" smooth="yes"/>
      <point x="370" y="760"/>
      <point x="342" y="770"/>
      <point x="317" y="770" type="curve" smooth="yes"/>
      <point x="268" y="770"/>
      <point x="215" y="770"/>
      <point x="172" y="745" type="curve"/>
      <point x="172" y="507"/>
      <point x="207" y="275"/>
      <point x="207" y="37" type="curve" smooth="yes"/>
      <point x="207" y="21"/>
      <point x="206" y="6"/>
      <point x="186" y="6" type="curve" smooth="yes"/>
      <point x="168" y="6"/>
      <point x="160" y="9"/>
      <point x="154" y="27" type="curve" smooth="yes"/>
      <point x="134" y="86"/>
      <point x="139" y="494"/>
      <point x="131" y="598" type="curve" smooth="yes"/>
      <point x="116" y="800"/>
      <point x="105" y="1003"/>
      <point x="99" y="1206" type="curve" smooth="yes"/>
      <point x="96" y="1206" type="line" smooth="yes"/>
      <point x="78" y="1206"/>
      <point x="53" y="1218"/>
      <point x="53" y="1241" type="curve" smooth="yes"/>
      <point x="53" y="1242"/>
      <point x="70" y="1244"/>
      <point x="98" y="1245" type="curve"/>
      <point x="95" y="1341"/>
      <point x="94" y="1436"/>
      <point x="94" y="1532" type="curve"/>
      <point x="127" y="1548" type="line"/>
      <point x="154" y="1526" type="line"/>
      <point x="148" y="1475"/>
      <point x="145" y="1425"/>
      <point x="145" y="1374" type="curve" smooth="yes"/>
      <point x="145" y="1331"/>
      <point x="147" y="1289"/>
      <point x="149" y="1247" type="curve"/>
      <point x="224" y="1249"/>
      <point x="326" y="1250"/>
      <point x="397" y="1251" type="curve"/>
      <point x="394" y="1341"/>
      <point x="391" y="1430"/>
      <point x="391" y="1520" type="curve" smooth="yes"/>
      <point x="391" y="1530"/>
      <point x="393" y="1538"/>
      <point x="395" y="1548" type="curve"/>
      <point x="448" y="1548"/>
      <point x="453" y="1462"/>
      <point x="453" y="1382" type="curve" smooth="yes"/>
      <point x="453" y="1251" type="line"/>
      <point x="466" y="1249"/>
      <point x="481" y="1233"/>
      <point x="481" y="1212" type="curve"/>
      <point x="454" y="1212" type="line"/>
      <point x="459" y="667"/>
      <point x="483" y="271"/>
      <point x="483" y="49" type="curve"/>
      <point x="487" y="41"/>
      <point x="492" y="30"/>
      <point x="492" y="20" type="curve" smooth="yes"/>
      <point x="492" y="4"/>
      <point x="475" y="-33"/>
    </contour>
  </outline>
</glyph>
<glyph name="Lslash" format="1">
  <advance width="475"/>
  <unicode hex="0141"/>
  <outline>
    <contour>
      <point x="127" y="20" type="curve" smooth="yes"/>
      <point x="127" y="38"/>
      <point x="139" y="72"/>
      <point x="139" y="113" type="curve" smooth="yes"/>
      <point x="139" y="302"/>
      <point x="120" y="490"/>
      <point x="119" y="681" type="curve"/>
      <point x="106" y="680"/>
      <point x="94" y="680"/>
      <point x="84" y="680" type="curve" smooth="yes"/>
      <point x="66" y="680"/>
      <point x="41" y="692"/>
      <point x="41" y="715" type="curve" smooth="yes"/>
      <point x="41" y="726"/>
      <point x="73" y="736"/>
      <point x="119" y="745" type="curve"/>
      <point x="117" y="1013"/>
      <point x="98" y="1282"/>
      <point x="98" y="1550" type="curve" smooth="yes"/>
      <point x="98" y="1566"/>
      <point x="111" y="1571"/>
      <point x="125" y="1571" type="curve" smooth="yes"/>
      <point x="148" y="1571"/>
      <point x="164" y="1557"/>
      <point x="164" y="1534" type="curve" smooth="yes"/>
      <point x="164" y="1348"/>
      <point x="164" y="1163"/>
      <point x="172" y="977" type="curve"/>
      <point x="174" y="907"/>
      <point x="184" y="840"/>
      <point x="184" y="770" type="curve" smooth="yes"/>
      <point x="184" y="756" type="line"/>
      <point x="261" y="767"/>
      <point x="349" y="774"/>
      <point x="391" y="774" type="curve" smooth="yes"/>
      <point x="409" y="774"/>
      <point x="436" y="759"/>
      <point x="436" y="739" type="curve" smooth="yes"/>
      <point x="436" y="716"/>
      <point x="297" y="696"/>
      <point x="186" y="686" type="curve"/>
      <point x="184" y="661"/>
      <point x="182" y="636"/>
      <point x="182" y="610" type="curve" smooth="yes"/>
      <point x="182" y="454"/>
      <point x="201" y="301"/>
      <point x="205" y="145" type="curve"/>
      <point x="197" y="133"/>
      <point x="197" y="118"/>
      <point x="197" y="104" type="curve" smooth="yes"/>
      <point x="197" y="65"/>
      <point x="207" y="55"/>
      <point x="244" y="55" type="curve" smooth="yes"/>
      <point x="258" y="55"/>
      <point x="279" y="56"/>
      <point x="289" y="68" type="curve"/>
      <point x="365" y="68" type="line"/>
      <point x="377" y="58"/>
      <point x="393" y="49"/>
      <point x="393" y="31" type="curve" smooth="yes"/>
      <point x="393" y="15"/>
      <point x="383" y="-4"/>
      <point x="365" y="-4" type="curve" smooth="yes"/>
      <point x="357" y="-4"/>
      <point x="342" y="2"/>
      <point x="334" y="4" type="curve"/>
      <point x="324" y="0"/>
      <point x="305" y="0"/>
      <point x="293" y="0" type="curve" smooth="yes"/>
      <point x="273" y="0"/>
      <point x="249" y="2"/>
      <point x="229" y="2" type="curve" smooth="yes"/>
      <point x="206" y="2"/>
      <point x="195" y="-23"/>
      <point x="172" y="-23" type="curve" smooth="yes"/>
      <point x="152" y="-23"/>
      <point x="127" y="-3"/>
    </contour>
  </outline>
</glyph>
<glyph name="Eng" format="1">
  <advance width="772"/>
  <unicode hex="014A"/>
  <outline>
    <contour>
      <point x="616" y="-131" type="curve" smooth="yes"/>
      <point x="616" y="-284"/>
      <point x="533" y="-401"/>
      <point x="442" y="-467" type="curve"/>
      <point x="415" y="-467"/>
      <point x="399" y="-455"/>
      <point x="399" y="-428" type="curve"/>
      <point x="401" y="-401"/>
      <point x="455" y="-378"/>
      <point x="473" y="-360" type="curve" smooth="yes"/>
      <point x="555" y="-278"/>
      <point x="563" y="-133"/>
      <point x="563" y="-47" type="curve" smooth="yes"/>
      <point x="563" y="-29" type="line"/>
      <point x="555" y="-17"/>
      <point x="547" y="3"/>
      <point x="541" y="23" type="curve" smooth="yes"/>
      <point x="445" y="326"/>
      <point x="323" y="703"/>
      <point x="266" y="1016" type="curve" smooth="yes"/>
      <point x="260" y="1045"/>
      <point x="267" y="1079"/>
      <point x="244" y="1102" type="curve"/>
      <point x="248" y="1112" type="line"/>
      <point x="230" y="1208"/>
      <point x="215" y="1309"/>
      <point x="178" y="1401" type="curve"/>
      <point x="176" y="1381"/>
      <point x="172" y="1361"/>
      <point x="172" y="1341" type="curve" smooth="yes"/>
      <point x="172" y="1329"/>
      <point x="172" y="1315"/>
      <point x="176" y="1303" type="curve"/>
      <point x="164" y="1262"/>
      <point x="162" y="1204"/>
      <point x="162" y="1161" type="curve" smooth="yes"/>
      <point x="162" y="600" type="line" smooth="yes"/>
      <point x="162" y="403"/>
      <point x="190" y="213"/>
      <point x="190" y="16" type="curve"/>
      <point x="176" y="0" type="line"/>
      <point x="129" y="0" type="line"/>
      <point x="123" y="16" type="line"/>
      <point x="127" y="32"/>
      <point x="127" y="80"/>
      <point x="127" y="98" type="curve" smooth="yes"/>
      <point x="127" y="336"/>
      <point x="104" y="573"/>
      <point x="104" y="811" type="curve" smooth="yes"/>
      <point x="104" y="1079" type="line" smooth="yes"/>
      <point x="104" y="1208"/>
      <point x="119" y="1337"/>
      <point x="119" y="1466" type="curve" smooth="yes"/>
      <point x="119" y="1480"/>
      <point x="117" y="1495"/>
      <point x="117" y="1509" type="curve" smooth="yes"/>
      <point x="117" y="1546"/>
      <point x="139" y="1552"/>
      <point x="172" y="1552" type="curve" smooth="yes"/>
      <point x="190" y="1552"/>
      <point x="219" y="1533"/>
      <point x="219" y="1513" type="curve" smooth="yes"/>
      <point x="219" y="1423"/>
      <point x="254" y="1385"/>
      <point x="279" y="1303" type="curve" smooth="yes"/>
      <point x="299" y="1235"/>
      <point x="297" y="1164"/>
      <point x="311" y="1096" type="curve" smooth="yes"/>
      <point x="350" y="908"/>
      <point x="410" y="723"/>
      <point x="459" y="539" type="curve"/>
      <point x="473" y="482"/>
      <point x="492" y="368"/>
      <point x="510" y="313" type="curve" smooth="yes"/>
      <point x="528" y="258"/>
      <point x="569" y="115"/>
      <point x="569" y="115" type="curve"/>
      <point x="569" y="115"/>
      <point x="578" y="219"/>
      <point x="578" y="248" type="curve" smooth="yes"/>
      <point x="578" y="486"/>
      <point x="586" y="723"/>
      <point x="586" y="961" type="curve" smooth="yes"/>
      <point x="586" y="1067"/>
      <point x="580" y="1172"/>
      <point x="580" y="1278" type="curve" smooth="yes"/>
      <point x="580" y="1305"/>
      <point x="586" y="1331"/>
      <point x="586" y="1356" type="curve" smooth="yes"/>
      <point x="586" y="1362"/>
      <point x="586" y="1378"/>
      <point x="580" y="1382" type="curve"/>
      <point x="586" y="1399" type="line"/>
      <point x="586" y="1446" type="line" smooth="yes"/>
      <point x="586" y="1487"/>
      <point x="586" y="1528"/>
      <point x="578" y="1567" type="curve"/>
      <point x="584" y="1587"/>
      <point x="609" y="1595"/>
      <point x="629" y="1595" type="curve" smooth="yes"/>
      <point x="660" y="1595"/>
      <point x="662" y="1551"/>
      <point x="662" y="1528" type="curve"/>
      <point x="652" y="1508"/>
      <point x="649" y="1483"/>
      <point x="649" y="1460" type="curve" smooth="yes"/>
      <point x="649" y="1437"/>
      <point x="651" y="1414"/>
      <point x="651" y="1391" type="curve" smooth="yes"/>
      <point x="651" y="1371"/>
      <point x="651" y="1347"/>
      <point x="643" y="1329" type="curve"/>
      <point x="643" y="1114"/>
      <point x="637" y="897"/>
      <point x="637" y="682" type="curve" smooth="yes"/>
      <point x="637" y="664"/>
      <point x="639" y="645"/>
      <point x="641" y="627" type="curve"/>
      <point x="637" y="618" type="line"/>
      <point x="637" y="360" type="line" smooth="yes"/>
      <point x="637" y="256"/>
      <point x="627" y="143"/>
      <point x="627" y="37" type="curve" smooth="yes"/>
      <point x="627" y="-14"/>
      <point x="616" y="-59"/>
    </contour>
  </outline>
</glyph>
<glyph name="eng" format="1">
  <advance width="862"/>
  <unicode hex="014B"/>
  <outline>
    <contour>
      <point x="469" y="418" type="curve"/>
      <point x="459" y="428"/>
      <point x="414" y="569"/>
      <point x="414" y="571" type="curve" smooth="yes"/>
      <point x="385" y="661"/>
      <point x="229" y="1143"/>
      <point x="182" y="1188" type="curve"/>
      <point x="170" y="1141"/>
      <point x="166" y="1091"/>
      <point x="166" y="1044" type="curve" smooth="yes"/>
      <point x="166" y="989"/>
      <point x="170" y="936"/>
      <point x="170" y="883" type="curve" smooth="yes"/>
      <point x="170" y="850"/>
      <point x="166" y="817"/>
      <point x="166" y="784" type="curve" smooth="yes"/>
      <point x="166" y="749"/>
      <point x="170" y="713"/>
      <point x="170" y="676" type="curve" smooth="yes"/>
      <point x="170" y="664"/>
      <point x="168" y="653"/>
      <point x="168" y="641" type="curve" smooth="yes"/>
      <point x="168" y="586"/>
      <point x="170" y="295"/>
      <point x="182" y="264" type="curve"/>
      <point x="182" y="80" type="line"/>
      <point x="190" y="66"/>
      <point x="190" y="53"/>
      <point x="190" y="37" type="curve" smooth="yes"/>
      <point x="190" y="17"/>
      <point x="175" y="-4"/>
      <point x="152" y="-4" type="curve" smooth="yes"/>
      <point x="111" y="-4"/>
      <point x="109" y="79"/>
      <point x="109" y="106" type="curve" smooth="yes"/>
      <point x="109" y="151"/>
      <point x="117" y="195"/>
      <point x="117" y="240" type="curve" smooth="yes"/>
      <point x="117" y="437"/>
      <point x="104" y="632"/>
      <point x="104" y="829" type="curve" smooth="yes"/>
      <point x="104" y="950"/>
      <point x="117" y="1071"/>
      <point x="117" y="1192" type="curve" smooth="yes"/>
      <point x="117" y="1204" type="line" smooth="yes"/>
      <point x="117" y="1253"/>
      <point x="117" y="1317"/>
      <point x="154" y="1350" type="curve"/>
      <point x="160" y="1343" type="line"/>
      <point x="180" y="1348" type="line"/>
      <point x="205" y="1338"/>
      <point x="207" y="1317"/>
      <point x="213" y="1294" type="curve" smooth="yes"/>
      <point x="276" y="1030"/>
      <point x="422" y="782"/>
      <point x="506" y="520" type="curve" smooth="yes"/>
      <point x="547" y="391"/>
      <point x="561" y="244"/>
      <point x="631" y="125" type="curve"/>
      <point x="635" y="131" type="line"/>
      <point x="674" y="502"/>
      <point x="682" y="874"/>
      <point x="682" y="1247" type="curve" smooth="yes"/>
      <point x="682" y="1263"/>
      <point x="678" y="1280"/>
      <point x="678" y="1298" type="curve" smooth="yes"/>
      <point x="678" y="1316"/>
      <point x="682" y="1341"/>
      <point x="707" y="1341" type="curve" smooth="yes"/>
      <point x="736" y="1341"/>
      <point x="752" y="1307"/>
      <point x="752" y="1282" type="curve" smooth="yes"/>
      <point x="752" y="1145" type="line"/>
      <point x="741" y="1128" type="line"/>
      <point x="741" y="1001"/>
      <point x="682" y="121"/>
      <point x="676" y="12" type="curve"/>
      <point x="676" y="-53" type="line" smooth="yes"/>
      <point x="676" y="-174"/>
      <point x="629" y="-444"/>
      <point x="428" y="-444" type="curve"/>
      <point x="393" y="-410" type="line"/>
      <point x="393" y="-408"/>
      <point x="391" y="-403"/>
      <point x="391" y="-401" type="curve" smooth="yes"/>
      <point x="391" y="-385"/>
      <point x="463" y="-389"/>
      <point x="526" y="-336" type="curve"/>
      <point x="587" y="-283"/>
      <point x="606" y="-148"/>
      <point x="610" y="-66" type="curve"/>
      <point x="575" y="76" type="line" smooth="yes"/>
      <point x="546" y="191"/>
      <point x="504" y="305"/>
    </contour>
  </outline>
</glyph>
<glyph name="Tbar" format="1">
  <advance width="542"/>
  <unicode hex="0166"/>
  <outline>
    <contour>
      <point x="274" y="70" type="curve" smooth="yes"/>
      <point x="276" y="183"/>
      <point x="291" y="293"/>
      <point x="291" y="406" type="curve" smooth="yes"/>
      <point x="291" y="502"/>
      <point x="285" y="597"/>
      <point x="279" y="693" type="curve"/>
      <point x="230" y="688"/>
      <point x="185" y="686"/>
      <point x="156" y="686" type="curve" smooth="yes"/>
      <point x="138" y="686"/>
      <point x="113" y="696"/>
      <point x="113" y="715" type="curve" smooth="yes"/>
      <point x="113" y="728"/>
      <point x="190" y="741"/>
      <point x="275" y="750" type="curve"/>
      <point x="268" y="854"/>
      <point x="262" y="957"/>
      <point x="262" y="1061" type="curve" smooth="yes"/>
      <point x="262" y="1104"/>
      <point x="264" y="1112"/>
      <point x="264" y="1253" type="curve" smooth="yes"/>
      <point x="264" y="1351"/>
      <point x="258" y="1464"/>
      <point x="229" y="1464" type="curve" smooth="yes"/>
      <point x="190" y="1464"/>
      <point x="152" y="1452"/>
      <point x="113" y="1452" type="curve" smooth="yes"/>
      <point x="95" y="1452"/>
      <point x="70" y="1464"/>
      <point x="70" y="1487" type="curve" smooth="yes"/>
      <point x="70" y="1518"/>
      <point x="338" y="1546"/>
      <point x="422" y="1546" type="curve" smooth="yes"/>
      <point x="440" y="1546"/>
      <point x="465" y="1531"/>
      <point x="465" y="1511" type="curve" smooth="yes"/>
      <point x="465" y="1486"/>
      <point x="449" y="1481"/>
      <point x="426" y="1481" type="curve" smooth="yes"/>
      <point x="403" y="1481"/>
      <point x="373" y="1487"/>
      <point x="350" y="1487" type="curve" smooth="yes"/>
      <point x="330" y="1487"/>
      <point x="313" y="1482"/>
      <point x="307" y="1466" type="curve"/>
      <point x="317" y="1380"/>
      <point x="322" y="1290"/>
      <point x="322" y="1200" type="curve" smooth="yes"/>
      <point x="322" y="1118"/>
      <point x="319" y="1034"/>
      <point x="319" y="952" type="curve" smooth="yes"/>
      <point x="319" y="891"/>
      <point x="319" y="822"/>
      <point x="324" y="754" type="curve"/>
      <point x="380" y="759"/>
      <point x="433" y="762"/>
      <point x="463" y="762" type="curve" smooth="yes"/>
      <point x="476" y="762"/>
      <point x="494" y="752"/>
      <point x="494" y="739" type="curve" smooth="yes"/>
      <point x="494" y="723"/>
      <point x="415" y="709"/>
      <point x="330" y="699" type="curve"/>
      <point x="334" y="667"/>
      <point x="340" y="634"/>
      <point x="348" y="604" type="curve"/>
      <point x="344" y="584"/>
      <point x="342" y="565"/>
      <point x="342" y="545" type="curve" smooth="yes"/>
      <point x="342" y="387"/>
      <point x="352" y="222"/>
      <point x="352" y="68" type="curve" smooth="yes"/>
      <point x="352" y="37"/>
      <point x="348" y="-12"/>
      <point x="317" y="-12" type="curve" smooth="yes"/>
      <point x="286" y="-12"/>
      <point x="274" y="45"/>
    </contour>
  </outline>
</glyph>
<glyph name="uni021A" format="1">
  <advance width="542"/>
  <unicode hex="021A"/>
  <outline>
    <contour>
      <point x="274" y="70" type="curve" smooth="yes"/>
      <point x="276" y="183"/>
      <point x="291" y="293"/>
      <point x="291" y="406" type="curve" smooth="yes"/>
      <point x="291" y="623"/>
      <point x="262" y="842"/>
      <point x="262" y="1061" type="curve" smooth="yes"/>
      <point x="262" y="1104"/>
      <point x="264" y="1112"/>
      <point x="264" y="1253" type="curve" smooth="yes"/>
      <point x="264" y="1351"/>
      <point x="258" y="1464"/>
      <point x="229" y="1464" type="curve" smooth="yes"/>
      <point x="190" y="1464"/>
      <point x="152" y="1452"/>
      <point x="113" y="1452" type="curve" smooth="yes"/>
      <point x="95" y="1452"/>
      <point x="70" y="1464"/>
      <point x="70" y="1487" type="curve" smooth="yes"/>
      <point x="70" y="1518"/>
      <point x="338" y="1546"/>
      <point x="422" y="1546" type="curve" smooth="yes"/>
      <point x="440" y="1546"/>
      <point x="465" y="1531"/>
      <point x="465" y="1511" type="curve" smooth="yes"/>
      <point x="465" y="1486"/>
      <point x="449" y="1481"/>
      <point x="426" y="1481" type="curve" smooth="yes"/>
      <point x="403" y="1481"/>
      <point x="373" y="1487"/>
      <point x="350" y="1487" type="curve" smooth="yes"/>
      <point x="330" y="1487"/>
      <point x="313" y="1482"/>
      <point x="307" y="1466" type="curve"/>
      <point x="317" y="1380"/>
      <point x="322" y="1290"/>
      <point x="322" y="1200" type="curve" smooth="yes"/>
      <point x="322" y="1118"/>
      <point x="319" y="1034"/>
      <point x="319" y="952" type="curve" smooth="yes"/>
      <point x="319" y="915" type="line" smooth="yes"/>
      <point x="319" y="817"/>
      <point x="321" y="702"/>
      <point x="348" y="604" type="curve"/>
      <point x="344" y="584"/>
      <point x="342" y="565"/>
      <point x="342" y="545" type="curve" smooth="yes"/>
      <point x="342" y="387"/>
      <point x="352" y="222"/>
      <point x="352" y="68" type="curve" smooth="yes"/>
      <point x="352" y="37"/>
      <point x="348" y="-12"/>
      <point x="317" y="-12" type="curve" smooth="yes"/>
      <point x="286" y="-12"/>
      <point x="274" y="45"/>
    </contour>
    <contour>
      <point x="172" y="-424" type="line"/>
      <point x="176" y="-406" type="line"/>
      <point x="217" y="-367"/>
      <point x="283" y="-319"/>
      <point x="283" y="-256" type="curve"/>
      <point x="252" y="-238"/>
      <point x="223" y="-203"/>
      <point x="223" y="-166" type="curve" smooth="yes"/>
      <point x="223" y="-127"/>
      <point x="266" y="-102"/>
      <point x="301" y="-102" type="curve" smooth="yes"/>
      <point x="340" y="-102"/>
      <point x="357" y="-129"/>
      <point x="369" y="-162" type="curve"/>
      <point x="365" y="-168" type="line"/>
      <point x="369" y="-176"/>
      <point x="369" y="-185"/>
      <point x="369" y="-193" type="curve" smooth="yes"/>
      <point x="369" y="-259"/>
      <point x="279" y="-438"/>
      <point x="205" y="-440" type="curve"/>
    </contour>
  </outline>
</glyph>
<glyph name="caron" format="1">
  <advance width="473"/>
  <unicode hex="02C7"/>
  <outline>
    <contour>
      <point x="309" y="1317" type="curve"/>
      <point x="336" y="1333" type="line"/>
      <point x="348" y="1331"/>
      <point x="373" y="1325"/>
      <point x="373" y="1309" type="curve" smooth="yes"/>
      <point x="373" y="1305"/>
      <point x="367" y="1290"/>
      <point x="365" y="1286" type="curve"/>
      <point x="367" y="1276" type="line"/>
      <point x="352" y="1245" type="line"/>
      <point x="354" y="1233" type="line"/>
      <point x="331" y="1149"/>
      <point x="293" y="1083"/>
      <point x="293" y="993" type="curve" smooth="yes"/>
      <point x="293" y="973"/>
      <point x="291" y="950"/>
      <point x="264" y="950" type="curve" smooth="yes"/>
      <point x="219" y="950"/>
      <point x="94" y="1245"/>
      <point x="92" y="1296" type="curve"/>
      <point x="129" y="1323" type="line"/>
      <point x="164" y="1276" type="line"/>
      <point x="168" y="1231"/>
      <point x="232" y="1063"/>
      <point x="250" y="1010" type="curve"/>
      <point x="277" y="1110"/>
      <point x="301" y="1213"/>
    </contour>
  </outline>
</glyph>
<glyph name="uni0326" format="1">
  <advance width="290"/>
  <unicode hex="0326"/>
  <outline>
    <contour>
      <point x="47" y="-424" type="line"/>
      <point x="51" y="-406" type="line"/>
      <point x="92" y="-367"/>
      <point x="158" y="-319"/>
      <point x="158" y="-256" type="curve"/>
      <point x="127" y="-238"/>
      <point x="98" y="-203"/>
      <point x="98" y="-166" type="curve" smooth="yes"/>
      <point x="98" y="-127"/>
      <point x="141" y="-102"/>
      <point x="176" y="-102" type="curve" smooth="yes"/>
      <point x="215" y="-102"/>
      <point x="232" y="-129"/>
      <point x="244" y="-162" type="curve"/>
      <point x="240" y="-168" type="line"/>
      <point x="244" y="-176"/>
      <point x="244" y="-185"/>
      <point x="244" y="-193" type="curve" smooth="yes"/>
      <point x="244" y="-259"/>
      <point x="154" y="-438"/>
      <point x="80" y="-440" type="curve"/>
    </contour>
  </outline>
</glyph>
<glyph name="endash" format="1">
  <advance width="620"/>
  <unicode hex="2013"/>
  <outline>
    <contour>
      <point x="631" y="727" type="curve"/>
      <point x="569" y="727" type="line"/>
      <point x="569" y="721"/>
      <point x="467" y="721"/>
      <point x="354" y="721" type="curve" smooth="yes"/>
      <point x="53" y="721" type="line" smooth="yes"/>
      <point x="33" y="721"/>
      <point x="10" y="733"/>
      <point x="10" y="756" type="curve" smooth="yes"/>
      <point x="10" y="762"/>
      <point x="150" y="762"/>
      <point x="293" y="762" type="curve" smooth="yes"/>
      <point x="586" y="762" type="line" smooth="yes"/>
      <point x="604" y="762"/>
      <point x="631" y="747"/>
    </contour>
  </outline>
</glyph>
<glyph name="emdash" format="1">
  <advance width="620"/>
  <unicode hex="2014"/>
  <outline>
    <contour>
      <point x="918" y="727" type="curve"/>
      <point x="856" y="727" type="line"/>
      <point x="856" y="721"/>
      <point x="754" y="721"/>
      <point x="641" y="721" type="curve" smooth="yes"/>
      <point x="53" y="721" type="line" smooth="yes"/>
      <point x="33" y="721"/>
      <point x="10" y="733"/>
      <point x="10" y="756" type="curve" smooth="yes"/>
      <point x="10" y="762"/>
      <point x="293" y="762"/>
      <point x="580" y="762" type="curve" smooth="yes"/>
      <point x="872" y="762" type="line" smooth="yes"/>
      <point x="890" y="762"/>
      <point x="918" y="747"/>
    </contour>
  </outline>
</glyph>
<glyph name="quoteleft" format="1">
  <advance width="395"/>
  <unicode hex="2018"/>
  <outline>
    <contour>
      <point x="297" y="1538" type="line"/>
      <point x="293" y="1520" type="line"/>
      <point x="252" y="1481"/>
      <point x="186" y="1433"/>
      <point x="186" y="1370" type="curve"/>
      <point x="217" y="1352"/>
      <point x="246" y="1317"/>
      <point x="246" y="1280" type="curve" smooth="yes"/>
      <point x="246" y="1241"/>
      <point x="203" y="1217"/>
      <point x="168" y="1217" type="curve" smooth="yes"/>
      <point x="129" y="1217"/>
      <point x="112" y="1243"/>
      <point x="100" y="1276" type="curve"/>
      <point x="104" y="1282" type="line"/>
      <point x="100" y="1290"/>
      <point x="100" y="1299"/>
      <point x="100" y="1307" type="curve" smooth="yes"/>
      <point x="100" y="1373"/>
      <point x="190" y="1552"/>
      <point x="264" y="1554" type="curve"/>
    </contour>
  </outline>
</glyph>
<glyph name="quotesinglbase" format="1">
  <advance width="407"/>
  <unicode hex="201A"/>
  <outline>
    <contour>
      <point x="100" y="-162" type="line"/>
      <point x="104" y="-143" type="line"/>
      <point x="145" y="-104"/>
      <point x="211" y="-57"/>
      <point x="211" y="6" type="curve"/>
      <point x="180" y="24"/>
      <point x="152" y="59"/>
      <point x="152" y="96" type="curve" smooth="yes"/>
      <point x="152" y="135"/>
      <point x="194" y="160"/>
      <point x="229" y="160" type="curve" smooth="yes"/>
      <point x="268" y="160"/>
      <point x="285" y="133"/>
      <point x="297" y="100" type="curve"/>
      <point x="293" y="94" type="line"/>
      <point x="297" y="86"/>
      <point x="297" y="78"/>
      <point x="297" y="70" type="curve" smooth="yes"/>
      <point x="297" y="4"/>
      <point x="207" y="-176"/>
      <point x="133" y="-178" type="curve"/>
    </contour>
  </outline>
</glyph>
<glyph name="bullet" format="1">
  <advance width="868"/>
  <unicode hex="2022"/>
  <outline>
    <contour>
      <point x="301" y="690" type="curve" smooth="yes"/>
      <point x="301" y="758"/>
      <point x="340" y="858"/>
      <point x="418" y="858" type="curve" smooth="yes"/>
      <point x="518" y="858"/>
      <point x="573" y="804"/>
      <point x="573" y="741" type="curve" smooth="yes"/>
      <point x="573" y="684"/>
      <point x="551" y="571"/>
      <point x="426" y="571" type="curve" smooth="yes"/>
      <point x="348" y="571"/>
      <point x="301" y="649"/>
    </contour>
  </outline>
</glyph>
<glyph name="ellipsis" format="1">
  <advance width="983"/>
  <unicode hex="2026"/>
  <outline>
    <contour>
      <point x="113" y="41" type="curve" smooth="yes"/>
      <point x="113" y="68"/>
      <point x="139" y="96"/>
      <point x="166" y="96" type="curve" smooth="yes"/>
      <point x="191" y="96"/>
      <point x="215" y="66"/>
      <point x="215" y="43" type="curve" smooth="yes"/>
      <point x="215" y="6"/>
      <point x="191" y="-8"/>
      <point x="158" y="-8" type="curve" smooth="yes"/>
      <point x="133" y="-8"/>
      <point x="113" y="18"/>
    </contour>
    <contour>
      <point x="440" y="41" type="curve" smooth="yes"/>
      <point x="440" y="68"/>
      <point x="467" y="96"/>
      <point x="494" y="96" type="curve" smooth="yes"/>
      <point x="519" y="96"/>
      <point x="543" y="66"/>
      <point x="543" y="43" type="curve" smooth="yes"/>
      <point x="543" y="6"/>
      <point x="518" y="-8"/>
      <point x="485" y="-8" type="curve" smooth="yes"/>
      <point x="460" y="-8"/>
      <point x="440" y="18"/>
    </contour>
    <contour>
      <point x="768" y="41" type="curve" smooth="yes"/>
      <point x="768" y="68"/>
      <point x="794" y="96"/>
      <point x="821" y="96" type="curve" smooth="yes"/>
      <point x="846" y="96"/>
      <point x="870" y="66"/>
      <point x="870" y="43" type="curve" smooth="yes"/>
      <point x="870" y="6"/>
      <point x="846" y="-8"/>
      <point x="813" y="-8" type="curve" smooth="yes"/>
      <point x="788" y="-8"/>
      <point x="768" y="18"/>
    </contour>
  </outline>
</glyph>
<glyph name="guilsinglleft" format="1">
  <advance width="569"/>
  <unicode hex="2039"/>
  <outline>
    <contour>
      <point x="430" y="4" type="line"/>
      <point x="387" y="67"/>
      <point x="352" y="160"/>
      <point x="313" y="242" type="curve" smooth="yes"/>
      <point x="211" y="455" type="line" smooth="yes"/>
      <point x="197" y="486"/>
      <point x="178" y="518"/>
      <point x="166" y="549" type="curve" smooth="yes"/>
      <point x="148" y="598"/>
      <point x="84" y="645"/>
      <point x="84" y="698" type="curve" smooth="yes"/>
      <point x="84" y="755"/>
      <point x="274" y="1149"/>
      <point x="307" y="1247" type="curve" smooth="yes"/>
      <point x="319" y="1282"/>
      <point x="346" y="1415"/>
      <point x="385" y="1421" type="curve"/>
      <point x="412" y="1401" type="line"/>
      <point x="381" y="1202"/>
      <point x="156" y="870"/>
      <point x="156" y="700" type="curve" smooth="yes"/>
      <point x="156" y="675"/>
      <point x="434" y="116"/>
      <point x="471" y="53" type="curve"/>
      <point x="489" y="39" type="line"/>
      <point x="487" y="27"/>
      <point x="475" y="0"/>
      <point x="461" y="0" type="curve" smooth="yes"/>
      <point x="453" y="0"/>
      <point x="444" y="4"/>
      <point x="434" y="4" type="curve" smooth="yes"/>
    </contour>
  </outline>
</glyph>
<glyph name="l_l" format="1">
  <advance width="913"/>
  <outline>
    <contour>
      <point x="207" y="-29" type="curve"/>
      <point x="203" y="-33" type="line"/>
      <point x="139" y="-33" type="line" smooth="yes"/>
      <point x="116" y="-33"/>
      <point x="106" y="-4"/>
      <point x="104" y="14" type="curve"/>
      <point x="108" y="32"/>
      <point x="109" y="56"/>
      <point x="109" y="76" type="curve" smooth="yes"/>
      <point x="109" y="371"/>
      <point x="117" y="663"/>
      <point x="117" y="958" type="curve" smooth="yes"/>
      <point x="117" y="1026"/>
      <point x="117" y="1131"/>
      <point x="121" y="1178" type="curve"/>
      <point x="121" y="1205"/>
      <point x="125" y="1319"/>
      <point x="125" y="1321" type="curve" smooth="yes"/>
      <point x="124" y="1330"/>
      <point x="138" y="1339"/>
      <point x="153" y="1339" type="curve" smooth="yes"/>
      <point x="165" y="1339"/>
      <point x="177" y="1333"/>
      <point x="180" y="1315" type="curve"/>
      <point x="180" y="1055"/>
      <point x="176" y="779"/>
      <point x="176" y="539" type="curve" smooth="yes"/>
      <point x="176" y="248" type="line"/>
      <point x="174" y="180"/>
      <point x="174" y="101"/>
      <point x="174" y="33" type="curve"/>
      <point x="205" y="33"/>
      <point x="227" y="33"/>
      <point x="381" y="43" type="curve"/>
      <point x="393" y="45"/>
      <point x="424" y="41"/>
      <point x="424" y="10" type="curve" smooth="yes"/>
      <point x="424" y="-15"/>
      <point x="399" y="-12"/>
      <point x="389" y="-16" type="curve"/>
      <point x="332" y="-22"/>
      <point x="268" y="-29"/>
    </contour>
    <contour>
      <point x="535" y="-25" type="curve" smooth="yes"/>
      <point x="501" y="-25"/>
      <point x="498" y="22"/>
      <point x="498" y="62" type="curve" smooth="yes"/>
      <point x="498" y="84" type="line" smooth="yes"/>
      <point x="498" y="375"/>
      <point x="506" y="663"/>
      <point x="506" y="954" type="curve" smooth="yes"/>
      <point x="506" y="1022"/>
      <point x="506" y="1127"/>
      <point x="510" y="1174" type="curve"/>
      <point x="510" y="1201"/>
      <point x="514" y="1315"/>
      <point x="514" y="1319" type="curve" smooth="yes"/>
      <point x="514" y="1328"/>
      <point x="520" y="1331"/>
      <point x="529" y="1331" type="curve" smooth="yes"/>
      <point x="546" y="1331"/>
      <point x="573" y="1319"/>
      <point x="573" y="1319" type="curve"/>
      <point x="573" y="1264"/>
      <point x="574" y="1212"/>
      <point x="578" y="1157" type="curve"/>
      <point x="578" y="948"/>
      <point x="571" y="728"/>
      <point x="571" y="535" type="curve" smooth="yes"/>
      <point x="571" y="478"/>
      <point x="575" y="417"/>
      <point x="575" y="360" type="curve"/>
      <point x="569" y="344" type="line"/>
      <point x="571" y="346" type="line"/>
      <point x="571" y="340"/>
      <point x="569" y="336"/>
      <point x="569" y="330" type="curve" smooth="yes"/>
      <point x="569" y="320"/>
      <point x="571" y="309"/>
      <point x="575" y="301" type="curve"/>
      <point x="569" y="41" type="line"/>
      <point x="776" y="41"/>
      <point x="622" y="39"/>
      <point x="776" y="39" type="curve" smooth="yes"/>
      <point x="783" y="39" type="line" smooth="yes"/>
      <point x="801" y="39"/>
      <point x="829" y="32"/>
      <point x="829" y="-4" type="curve" smooth="yes"/>
      <point x="829" y="-16"/>
      <point x="803" y="-23"/>
      <point x="791" y="-25" type="curve"/>
      <point x="732" y="-23"/>
      <point x="665" y="-23"/>
      <point x="602" y="-23" type="curve"/>
      <point x="598" y="-27" type="line"/>
      <point x="575" y="-25"/>
      <point x="558" y="-25"/>
    </contour>
  </outline>
</glyph>
<glyph name="m_m" format="1">
  <advance width="1804"/>
  <outline>
    <contour>
      <point x="784" y="-25" type="curve"/>
      <point x="784" y="-23" type="line"/>
      <point x="749" y="-23"/>
      <point x="748" y="27"/>
      <point x="748" y="45" type="curve" smooth="yes"/>
      <point x="748" y="103" type="line" smooth="yes"/>
      <point x="748" y="278"/>
      <point x="747" y="452"/>
      <point x="731" y="623" type="curve"/>
      <point x="731" y="678"/>
      <point x="729" y="733"/>
      <point x="729" y="788" type="curve" smooth="yes"/>
      <point x="729" y="872"/>
      <point x="729" y="958"/>
      <point x="725" y="1042" type="curve"/>
      <point x="725" y="1083"/>
      <point x="725" y="1151"/>
      <point x="717" y="1188" type="curve"/>
      <point x="699" y="1077"/>
      <point x="546" y="346"/>
      <point x="526" y="225" type="curve"/>
      <point x="518" y="200"/>
      <point x="516" y="117"/>
      <point x="471" y="117" type="curve" smooth="yes"/>
      <point x="438" y="117"/>
      <point x="428" y="150"/>
      <point x="428" y="207" type="curve"/>
      <point x="401" y="377"/>
      <point x="232" y="1081"/>
      <point x="201" y="1169" type="curve"/>
      <point x="193" y="802"/>
      <point x="180" y="439"/>
      <point x="180" y="72" type="curve" smooth="yes"/>
      <point x="180" y="45"/>
      <point x="180" y="17"/>
      <point x="182" y="-10" type="curve"/>
      <point x="176" y="-28"/>
      <point x="157" y="-37"/>
      <point x="139" y="-37" type="curve" smooth="yes"/>
      <point x="131" y="-37"/>
      <point x="104" y="-18"/>
      <point x="104" y="-8" type="curve" smooth="yes"/>
      <point x="104" y="424"/>
      <point x="139" y="852"/>
      <point x="139" y="1284" type="curve" smooth="yes"/>
      <point x="139" y="1298"/>
      <point x="127" y="1309"/>
      <point x="127" y="1323" type="curve" smooth="yes"/>
      <point x="127" y="1350"/>
      <point x="164" y="1354"/>
      <point x="182" y="1354" type="curve" smooth="yes"/>
      <point x="243" y="1354"/>
      <point x="230" y="1280"/>
      <point x="240" y="1249" type="curve"/>
      <point x="254" y="1175"/>
      <point x="295" y="1033"/>
      <point x="313" y="920" type="curve"/>
      <point x="336" y="834"/>
      <point x="365" y="750"/>
      <point x="381" y="664" type="curve"/>
      <point x="414" y="522" type="line"/>
      <point x="432" y="440"/>
      <point x="473" y="248"/>
      <point x="473" y="248" type="curve"/>
      <point x="487" y="330"/>
      <point x="625" y="1081"/>
      <point x="645" y="1194" type="curve"/>
      <point x="663" y="1268"/>
      <point x="661" y="1348"/>
      <point x="731" y="1348" type="curve" smooth="yes"/>
      <point x="747" y="1348"/>
      <point x="780" y="1331"/>
      <point x="780" y="1247" type="curve" smooth="yes"/>
      <point x="780" y="1014"/>
      <point x="811" y="394"/>
      <point x="811" y="242" type="curve" smooth="yes"/>
      <point x="811" y="181"/>
      <point x="813" y="116"/>
      <point x="821" y="57" type="curve" smooth="yes"/>
      <point x="823" y="48"/>
      <point x="825" y="36"/>
      <point x="825" y="23" type="curve" smooth="yes"/>
      <point x="825" y="-1"/>
      <point x="817" y="-25"/>
    </contour>
    <contour>
      <point x="1653" y="-23" type="curve"/>
      <point x="1651" y="-27" type="line"/>
      <point x="1616" y="-27"/>
      <point x="1614" y="23"/>
      <point x="1614" y="41" type="curve" smooth="yes"/>
      <point x="1614" y="99" type="line" smooth="yes"/>
      <point x="1614" y="274"/>
      <point x="1613" y="447"/>
      <point x="1597" y="618" type="curve"/>
      <point x="1597" y="673"/>
      <point x="1595" y="729"/>
      <point x="1595" y="784" type="curve" smooth="yes"/>
      <point x="1595" y="874"/>
      <point x="1595" y="967"/>
      <point x="1591" y="1057" type="curve"/>
      <point x="1591" y="1098"/>
      <point x="1591" y="1165"/>
      <point x="1583" y="1202" type="curve"/>
      <point x="1565" y="1100"/>
      <point x="1413" y="416"/>
      <point x="1393" y="303" type="curve"/>
      <point x="1385" y="278"/>
      <point x="1382" y="195"/>
      <point x="1337" y="195" type="curve" smooth="yes"/>
      <point x="1288" y="195"/>
      <point x="1292" y="250"/>
      <point x="1274" y="324" type="curve"/>
      <point x="1233" y="463"/>
      <point x="1092" y="1075"/>
      <point x="1069" y="1186" type="curve"/>
      <point x="1069" y="86" type="line" smooth="yes"/>
      <point x="1069" y="59"/>
      <point x="1069" y="31"/>
      <point x="1071" y="4" type="curve"/>
      <point x="1065" y="-14"/>
      <point x="1046" y="-23"/>
      <point x="1028" y="-23" type="curve" smooth="yes"/>
      <point x="1020" y="-23"/>
      <point x="993" y="-4"/>
      <point x="993" y="6" type="curve" smooth="yes"/>
      <point x="993" y="426"/>
      <point x="1008" y="842"/>
      <point x="1008" y="1262" type="curve" smooth="yes"/>
      <point x="1008" y="1298"/>
      <point x="1026" y="1319"/>
      <point x="1046" y="1319" type="curve" smooth="yes"/>
      <point x="1069" y="1319"/>
      <point x="1096" y="1292"/>
      <point x="1108" y="1227" type="curve"/>
      <point x="1124" y="1157"/>
      <point x="1172" y="1024"/>
      <point x="1192" y="920" type="curve"/>
      <point x="1206" y="854"/>
      <point x="1337" y="285"/>
      <point x="1337" y="285" type="curve"/>
      <point x="1351" y="367"/>
      <point x="1493" y="1103"/>
      <point x="1513" y="1214" type="curve"/>
      <point x="1531" y="1265"/>
      <point x="1529" y="1323"/>
      <point x="1599" y="1323" type="curve" smooth="yes"/>
      <point x="1615" y="1323"/>
      <point x="1649" y="1307"/>
      <point x="1649" y="1223" type="curve" smooth="yes"/>
      <point x="1649" y="996"/>
      <point x="1679" y="391"/>
      <point x="1679" y="244" type="curve" smooth="yes"/>
      <point x="1679" y="183"/>
      <point x="1682" y="118"/>
      <point x="1690" y="59" type="curve" smooth="yes"/>
      <point x="1692" y="50"/>
      <point x="1694" y="38"/>
      <point x="1694" y="25" type="curve" smooth="yes"/>
      <point x="1694" y="1"/>
      <point x="1686" y="-23"/>
    </contour>
  </outline>
</glyph>
